<svg viewBox="0 0 17 17" xmlns="http://www.w3.org/2000/svg" width="16" height="16"><path d="M9.988 9.663c1.597.678 3.571 1.621 5.37 2.396.333 0 .601-.284.601-.636V5.578c0-.353-.268-.637-.601-.637-2 .862-3.877 1.693-5.336 2.312m-3.046.07C5.505 6.698 3.685 5.82 1.643 4.94c-.333 0-.601.284-.601.636v5.845c0 .353.268.637.601.637 1.793-.773 3.729-1.65 5.323-2.327" fill="none" stroke-linecap="round" stroke-linejoin="round" stroke-width="1.082" stroke="#000"/><rect x="7.033" y="6.457" width="2.927" height="4.014" rx=".269" ry=".269" fill="none" stroke-linecap="round" stroke-linejoin="round" stroke-width="1.082" stroke="#000"/><path d="M10.16 8.535h1.219m-5.97 0h.156" fill="none" stroke-linecap="round" stroke="#000"/></svg>