<svg id="SVGRoot" viewBox="0 0 50 32" xmlns="http://www.w3.org/2000/svg" width="50" height="32"><defs><style>.cls-1{fill:none}.cls-2{fill:#231f20}.cls-3{fill:#ff5f00}.cls-4{fill:#eb001b}.cls-5{fill:#f79e1b}</style></defs><rect x=".5" y=".5" width="49" height="31" rx="4" ry="4" fill="none" stroke="#ccc"/><g transform="matrix(.8821 0 0 .8822 49.22 12.73)"><path class="cls-2" d="M-37.55 16.38v-1.635a.97.97 0 0 0-1.025-1.035 1.008 1.008 0 0 0-.915.463.956.956 0 0 0-.861-.463.861.861 0 0 0-.763.387v-.322h-.567v2.605h.572v-1.433a.61.61 0 0 1 .638-.692c.376 0 .566.245.566.687v1.45h.573v-1.444a.613.613 0 0 1 .637-.692c.387 0 .572.245.572.686v1.45zm8.466-2.605h-.932v-.79h-.572v.79h-.518v.518h.529v1.199c0 .605.234.964.904.964a1.33 1.33 0 0 0 .709-.201l-.164-.485a1.046 1.046 0 0 1-.501.147c-.273 0-.376-.175-.376-.436v-1.188h.926zm4.834-.065a.768.768 0 0 0-.687.381v-.316h-.56v2.605h.566v-1.46c0-.43.185-.67.545-.67a.924.924 0 0 1 .354.065l.175-.545a1.213 1.213 0 0 0-.404-.07zm-7.308.272a1.948 1.948 0 0 0-1.063-.272c-.66 0-1.09.316-1.09.833 0 .426.316.687.9.769l.272.038c.31.044.458.125.458.272 0 .202-.208.317-.594.317a1.387 1.387 0 0 1-.867-.273l-.273.441a1.88 1.88 0 0 0 1.128.338c.752 0 1.188-.354 1.188-.85s-.343-.697-.91-.779l-.272-.038c-.245-.033-.442-.082-.442-.256 0-.175.186-.305.496-.305a1.678 1.678 0 0 1 .818.223zm15.18-.272a.768.768 0 0 0-.687.381v-.316h-.56v2.605h.566v-1.46c0-.43.185-.67.545-.67a.924.924 0 0 1 .354.065l.175-.545a1.213 1.213 0 0 0-.404-.07zm-7.302 1.362a1.316 1.316 0 0 0 1.39 1.362 1.362 1.362 0 0 0 .937-.311l-.272-.458a1.144 1.144 0 0 1-.681.235.837.837 0 0 1 0-1.668 1.144 1.144 0 0 1 .68.234l.273-.458a1.362 1.362 0 0 0-.937-.31 1.316 1.316 0 0 0-1.39 1.361zm5.308 0v-1.297h-.567v.316a.99.99 0 0 0-.817-.382 1.362 1.362 0 0 0 0 2.725.99.99 0 0 0 .817-.381v.316h.567zm-2.109 0a.787.787 0 1 1 .79.833.782.782 0 0 1-.79-.833zm-6.839-1.362a1.363 1.363 0 0 0 .038 2.725 1.583 1.583 0 0 0 1.082-.355l-.272-.42a1.24 1.24 0 0 1-.758.273.722.722 0 0 1-.78-.637h1.936v-.218c0-.818-.507-1.362-1.237-1.362zm0 .506a.646.646 0 0 1 .66.633h-1.363a.67.67 0 0 1 .693-.633zm14.2.861v-2.349h-.545v1.362a.99.99 0 0 0-.817-.381 1.362 1.362 0 0 0 0 2.725.99.99 0 0 0 .817-.382v.317h.545zm.946.924a.273.273 0 0 1 .103.02.273.273 0 0 1 .084.054.273.273 0 0 1 .058.081.253.253 0 0 1 0 .202.273.273 0 0 1-.058.082.273.273 0 0 1-.084.054.256.256 0 0 1-.103.022.273.273 0 0 1-.246-.158.256.256 0 0 1 0-.202.273.273 0 0 1 .058-.081.273.273 0 0 1 .084-.055.273.273 0 0 1 .112-.019zm0 .46a.194.194 0 0 0 .079-.016.204.204 0 0 0 .062-.043.202.202 0 0 0 0-.273.202.202 0 0 0-.062-.043.196.196 0 0 0-.08-.017.204.204 0 0 0-.079.017.199.199 0 0 0-.065.043.202.202 0 0 0 0 .273.202.202 0 0 0 .065.043.202.202 0 0 0 .088.017zm.016-.324a.109.109 0 0 1 .07.022.068.068 0 0 1 .025.057.065.065 0 0 1-.019.05.095.095 0 0 1-.057.024l.079.09h-.063l-.073-.09h-.025v.09h-.052v-.24zm-.06.047v.065h.06a.057.057 0 0 0 .033 0 .027.027 0 0 0 0-.024.027.027 0 0 0 0-.025.057.057 0 0 0-.033 0zm-2.997-1.106a.787.787 0 1 1 .79.834.782.782 0 0 1-.79-.834zm-19.14 0v-1.302h-.567v.316a.99.99 0 0 0-.817-.382 1.362 1.362 0 0 0 0 2.725.99.99 0 0 0 .817-.381v.316h.567zm-2.11 0a.787.787 0 1 1 .791.834.782.782 0 0 1-.795-.834z" fill="#231f20" stroke-width=".273"/><g id="_Group_" transform="translate(-47.45 -12.3) scale(.2725)" data-name="&lt;Group&gt;"><path class="cls-3" fill="#ff5f00" d="M57.65 22.85h31.5v56.61h-31.5z"/><path id="_Path_" class="cls-4" d="M59.65 51.16A35.94 35.94 0 0 1 73.4 22.85a36 36 0 1 0 0 56.61 35.94 35.94 0 0 1-13.75-28.3z" data-name="&lt;Path&gt;" fill="#eb001b"/><path class="cls-5" d="M131.6 51.16a36 36 0 0 1-58.25 28.3 36 36 0 0 0 0-56.61 36 36 0 0 1 58.25 28.3zm-3.4 22.3V72.3h.47v-.24h-1.19v.24h.51v1.16zm2.31 0v-1.4h-.36l-.42 1-.42-1h-.32v1.4h.26v-1.05l.39.91h.27l.39-.91v1.06z" fill="#f79e1b"/></g></g><style>.cls-2{fill:#005098}.cls-3{fill:#f7a600}</style></svg>