<svg viewBox="0 0 17 17" xmlns="http://www.w3.org/2000/svg" width="16" height="16"><path d="M14.37 5.403c-.03-1.163-.616-3.047-3.575-1.061-3.134 2.103-2.02 2.936.843 3.328 2.71.371 2.718-1.817 2.732-2.267zM3.372 11.92v-.756s2.979.35 5.101.35 5.246-.35 5.246-.35v.741s-3.804 1.523-4.49 4.084H7.863s-.349-2.238-4.49-4.069zM13.39.346V3.47M3.692.346V3.47m4.403 2.805h.886" fill="none" stroke-width="1.15" stroke="#000"/><path d="M2.635 5.403c.03-1.163.616-3.047 3.575-1.061 3.134 2.103 2.02 2.936-.843 3.328-2.71.371-2.718-1.817-2.732-2.267z" fill="none" stroke-width="1.15" stroke="#000"/></svg>