<svg viewBox="0 0 222 61" xmlns="http://www.w3.org/2000/svg" width="259" height="73"><path d="M39.38 1c2.426 0 4.664.39 6.713 1.172 2.063.767 3.843 1.853 5.34 3.26 1.497 1.391 2.666 3.067 3.509 5.027s1.264 4.127 1.264 6.498c0 1.35-.16 2.678-.48 3.984a15.702 15.702 0 0 1-1.416 3.707 15.57 15.57 0 0 1-2.267 3.239c-.9.98-1.932 1.832-3.095 2.557a15.054 15.054 0 0 1-3.814 1.661c-1.395.412-2.899.618-4.512.618-2.426 0-4.671-.376-6.734-1.129-2.05-.767-3.822-1.846-5.318-3.239-1.497-1.391-2.667-3.06-3.51-5.006-.842-1.96-1.264-4.133-1.264-6.52 0-1.349.16-2.677.48-3.983.32-1.307.785-2.55 1.395-3.729a15.929 15.929 0 0 1 2.267-3.238c.9-.995 1.925-1.854 3.073-2.578a14.977 14.977 0 0 1 3.836-1.683C36.256 1.206 37.767 1 39.38 1zm1.242 29.806c1.613 0 2.99-.284 4.328-.852 1.336-.569 2.435-1.392 3.394-2.472.974-1.08 1.73-2.393 2.267-3.941.538-1.563.818-3.335.952-5.305.146-2.139.322-4.211-.2-6.072-.51-1.875-1.272-3.494-2.29-4.857a10.591 10.591 0 0 0-3.813-3.218c-1.512-.781-3.86-1.171-5.88-1.171-1.613 0-3.234.283-4.57.852a9.632 9.632 0 0 0-3.466 2.429c-.959 1.065-1.707 2.371-2.245 3.92-.537 1.548-1.195 3.31-1.195 5.283 0 2.173.06 4.205.568 6.093.509 1.876 1.272 3.502 2.289 4.88 1.017 1.377 2.483 2.464 4.008 3.259 1.526.781 3.834 1.172 5.853 1.172zM66.302 3.44c-.03 1.592-.046 3.133-.075 4.624l-.045 1.96c0 .668-.007 1.328-.022 1.982 0 .639-.007 1.257-.022 1.853v1.555c0 .952.007 2.102.022 3.452l.045 4.154c.029 1.42.066 2.687.11 3.994.045 1.307.034 2.393.093 3.26.207.036 1.16.065 1.5.105.355.036.724.058 1.108.083.384.037.76.04 1.13.044.368.036.678.036.93.036 1.033 0 2.088-.065 3.166-.192a14.534 14.534 0 0 0 3.145-.767c1.018-.37 1.97-.874 2.857-1.513a9.16 9.16 0 0 0 2.347-2.514c1.725-2.702 2.368-5.93 2.484-8.561.201-4.587-.49-7.335-2.77-10.24-.967-1.232-2.357-2.035-3.919-2.64-1.553-.603-4.114-.917-6.137-.917-.399 0-.849 0-1.35.044-.503.036-1.005.047-1.507.065-.487.037-.952.055-1.395.087-.428.037-1.401.051-1.682.062zm-4.218-1.916c.34.036.657.04.952.043.251.037.51.04.776.044h.642c.28 0 .745 0 1.395-.044.664-.036 1.417-.058 2.259-.083.841-.037 1.712-.059 2.613-.088a63.987 63.987 0 0 1 2.569-.043c2.14 0 4.518.254 6.452.767 1.934.511 3.632 1.35 5.094 2.514s2.28 2.691 3.136 4.58 1.285 4.211 1.285 6.967c0 1.974-.23 3.75-.687 5.326a13.807 13.807 0 0 1-1.882 4.079 13.003 13.003 0 0 1-2.923 3.11 16.149 16.149 0 0 1-3.743 2.11 20.242 20.242 0 0 1-4.363 1.214 29.62 29.62 0 0 1-4.805.383c-.59 0-1.307-.036-2.148-.065-.827-.037-1.661-.066-2.503-.106a219.11 219.11 0 0 1-2.391-.127 34.657 34.657 0 0 0-1.728-.044v-.087c.089-.298.17-.667.244-1.108.088-.44.162-.987.221-1.64.06-.653.104-1.427.133-2.322.03-.91.044-1.87.044-3.077V9.957a97.96 97.96 0 0 0-.044-3.175 41.626 41.626 0 0 0-.133-2.365 16.698 16.698 0 0 0-.221-1.683 9.327 9.327 0 0 0-.244-1.13zm-42.1 8.136c0 2.35-.735 4.556-2.924 6.094-2.155 1.512-4.157 2.234-7.884 2.188H4.569v14.362H1V1.711h9.655c6.495-.065 9.282 3.167 9.33 7.949zM4.569 16.321h4.745c1.448 0 2.902-.464 3.925-1.007 2.467-1.31 2.825-3.35 2.793-5.458-.079-5.146-1.98-5.864-4.638-6.621-1.166-.331-4.985-.093-6.825.1zM100.42 1.712v30.593h-4.252V1.712zm32.81 0v18.762c0 2.865-.335 5.021-1.005 6.47-.301.646-.787 1.386-1.457 2.218a7.73 7.73 0 0 1-2.26 1.94c-2.211 1.171-4.974 1.757-8.29 1.757-8.307 0-12.46-3.929-12.46-11.784V1.712h5.025v19.733c0 .893.116 1.617.15 2.172s.2 1.34.502 2.356c.335 1.017.77 1.833 1.306 2.45.57.616 1.44 1.17 2.613 1.663 1.205.493 2.629.74 4.27.74 6.263 0 9.395-3.081 9.395-9.243V1.713zM157.42 24.9l12.448-23.437h1.138l4.01 30.841-3.92.281-2.653-23.348h-.185l-11.795 23.067h-.1L145.195 8.81h-.184l-2.241 23.915-2.928-.421 4.246-30.841 1.035.05z" style="font-feature-settings:normal;font-variant-caps:normal;font-variant-ligatures:normal;font-variant-numeric:normal"/><path d="M212.86 11.185l-5.085 4.182.046.278c.113-.127.203-.173.248-.173.14.056-.02.614-.241.21l.632 3.89-2.565.413.436 2.655c.062-.041.165-.14.18-.112.036.062-.056.256-.135.406l.248 1.512 2.565-.414 1.505 9.214c.322 1.978.594 3.28.82 3.911.033.101.077.175.112.27 1.138-1.005 1.639-1.396 1.67-1.368.235-.614.422-.888.542-.888.387.013.096 2.632-1.332 3.693.302-1.338.561-2.21.783-2.79-.05.137-1.047 1.072-1.655 1.361.278.746.609 1.363 1.015 1.79.472.468 1.143.81 2.009 1.023.863.2 1.796.217 2.805.053 1.646-.268 3.078-.788 4.287-1.557l-1.188-4.265c-.924.518-1.648.818-2.166.903-.372.059-.705.02-1-.12a1.307 1.307 0 0 1-.61-.617c-.114-.282-.313-1.284-.594-3.009l-.534-3.294c-.053-.037-.13-.133-.196-.203-.025-.004-.044-.007-.075-.016.003-.023.011-.03.015-.052-.04-.048-.068-.06-.113-.12.042-.433.096-.693.15-.918l-.63-3.919 3.82-.624-.73-4.46-3.82.624zm-1.835 4.821c.732.005.527.251-2.813.722.411-.49 2.08-.722 2.813-.722zm.443.828c.596-.032 1.024.178-.488.722-.869-.42-.107-.684.488-.722zm-44.144 1.18l-5.596.918 2.204 13.501c.156-.09.294-.15.339-.15.131.05-.132.421-.309.36l.722 4.393c.118-.121.326-.426.399-.466.391-.217.148.582-.316 1l1.722 10.545 5.596-.91-1.105-6.769 2.166-3.152 1.346 1.693c.03.003.055-.01.09.008.248.126.58.58.678.955l4.43 5.58c.637-.818 1.624-1.566 1.903-1.526.198.028-.265.676-1.241 1.737.051.029.1.065.15.098l5.446-.88c.017-.013.043-.04.06-.052l-1.204-1.475c.056.248-.144.609-.594.09.2-.223.351-.301.452-.263l-8.552-10.478 5.964-8.898-6.89 1.121-1.459 2.332c.019.036.021.065-.052.075l-.55.888c.096-.067.261-.24.316-.256.353-.062-.068.822-.571.662l-3.016 4.813-1.384-8.484c-.005-.01-.01-.004-.015-.015.007-.008.008 0 .015-.008zm-4.971 1.174c.383.015.8.128.105.293-.84-.23-.49-.293-.105-.293zm4.633.143c.227.077.115.878-.338.24.15-.2.263-.279.338-.24zm-2.806.263c.408-.204 1.156 1.365-.15.21a.367.367 0 0 1 .15-.21zm44.761.256c.133-.008-.062.807-.255.36.127-.265.211-.357.255-.36zm6.973.053c.203.223.033 1.524-.722 1.323.345-1.204.6-1.458.722-1.323zm-49.515.797c.32-.043.777.269-.218.188a.21.21 0 0 1 .218-.188zm-.376.323c.303-.036.108.814-.474.414.215-.287.373-.414.474-.414zm29.229.421a12.408 12.408 0 0 0-2.264.166 9.782 9.782 0 0 0-3.475 1.256c.079.215.078.5-.218.113-1.086.688-2.01 1.601-2.768 2.753-1.51 2.276-1.978 5.168-1.407 8.672.427 2.619 1.363 4.715 2.768 6.348.194-.417.336-.62.384-.579.073.066-.022.49-.24.737.125.14.227.304.36.437.16.155.352.25.52.39.024-.026.058-.102.082-.12.228-.165.35.116.406.49.797.571 1.647 1.05 2.61 1.323.347-.454.613-.738.752-.79.345-.132.123.657-.316.895.291.068.62.07.925.113-.16-2.529.105-4.017.52-4.663-.272-.132-.558-.204-.813-.399-.611-.475-1.056-1.158-1.414-1.948-.1.026-.19.053-.391.053-.02-.228.06-.334.173-.376.044-.016.071.034.12.037-.176-.442-.364-.866-.466-1.399-.042.09-.183.095-.534-.203-.117.338-.46.797-.73.399.367-.482.581-.654.692-.692.105-.026.1.101.053.256.084-.193.183-.24.278-.203.15.048.272.27.271.406l3.031-.497c.086-.637.256-.9.399-.865.195.043.314.495.038.797l10.508-1.714c-.366-2.537-1.027-4.58-1.926-6.236-.035.597-.354 1.244-1.196.94.282-1.049.547-1.53.76-1.684-.531-.822-1.11-1.563-1.798-2.129-1.619-1.34-3.52-2.037-5.694-2.084zm19.947.331c.277.033-1.002 1.047-.903.392.549-.303.81-.392.903-.392zm-50.003.113c.633.072.657.978-1.467 1.12.49-.908 1.087-1.162 1.467-1.12zm33.524.527c.25-.121.471 1.408-.226.812.057-.546.143-.77.226-.812zm-1.189.067c.228.077.108.878-.345.241.15-.2.27-.28.345-.24zm-3.798.211c.385-.115-.344.815-.805.55.428-.354.677-.511.805-.55zm-30.598.135c.23.074.27 1.464-.278.504.105-.403.201-.542.278-.504zm49.131.12c.273-.24.74.715-.15.715-.01-.421.06-.633.15-.714zm-19.759.257c.15.08-.079.882-.293.233.146-.193.243-.272.293-.233zm-.993.052c.48.196-.309 1.678-2.256 1.64 1.225-1.413 1.969-1.755 2.256-1.64zm7.266.542c.226.023.216.944-.293.368.119-.285.218-.368.293-.368zm1.354.662c.227.077.115.878-.339.24.152-.2.263-.279.339-.24zm1.249.481c.149.085-.072.89-.286.24.146-.196.236-.278.286-.24zm-6.16.459c.044.048-.056.287-.09.466.707.08 1.39.284 2.007.76.857.649 1.412 1.73 1.738 3.144.291.116.357.775-.624.775.047-.205.12-.225.18-.346l-6.025.977c.01 1.097-.305 1.115-.654.94-.073.691-.19 1.413-.564 2.084-.763-3.268-.05-2.388.564-2.083.031-.301.057-.563.083-.843l-1.211.196c-.262-1.524-.065-2.795.586-3.814.446-.696 1.077-1.13 1.79-1.444.118-.223.322-.676.376-.737.149-.164.067.205-.075.624.245-.085.45-.226.722-.27.271-.045.516.023.775.03.19-.269.373-.511.421-.46zm-26.943.113c.063.203-1.352 1.978-.684.496.482-.458.665-.566.684-.496zm20.43.12c.23.074.27 1.464-.279.504.106-.404.201-.542.278-.504zm-.572.707c.127.12-.117 1.291-.271.354.14-.312.228-.392.27-.354zm-22.046.519c.412-.09-.297 1.182-.835.662.435-.452.697-.623.835-.662zm.91.053c.163.038-.273.531-.399.158.22-.12.345-.158.399-.158zm-7.65.443a6.843 6.843 0 0 0-1.918.038c-.902.147-1.68.508-2.324 1.076-.36.324-.728.86-1.098 1.512.278.424.517 1.553-.143 2.076a9.033 9.033 0 0 1-.173-1.437c-.172.345-.337.63-.511 1.045l-.497-3.008-.09.015c-.007.36-.09.523-.323.053l-4.777.782.136.82c.226-.164.47-.35.541-.324.214.054-.165.691-.474.76l3.242 19.887 5.596-.91-.767-4.701c-1.652.842-2.61 1.1-.135-.82l-.166-1.008a73.69 73.69 0 0 1-.496-3.603c-1.47 2.072-2.567 2.924-.166-2.362-.008-.387-.065-.938-.037-1.203.065-.57.17-1.054.316-1.467-.083-.022-.173-.08-.279-.233.228-.196.376-.28.467-.24.024.007.022.041.037.06.118-.234.224-.49.376-.655.473-.526 1.098-.857 1.88-.985.504-.082 1.068-.011 1.663.135-.011-.706.12-.945.256-.895.22.082.384.762-.113.94.32.087.634.158.978.309l.022-.143c-.064.083-.149.097-.24-.18.146-.197.236-.272.286-.234.038.022-.003.123-.008.203l.872-4.806a7.712 7.712 0 0 0-1.933-.497zm41.384.211c.348-.04.844.707-.233.376.02-.262.118-.376.233-.376zm-24.565.24c.453.198-.662 1.88-1.06.467.582-.428.91-.532 1.06-.466zm-25.927 1.31c.15.084-.07.89-.285.24.146-.196.236-.279.285-.24zm16.502 1c.447.02 1.065.519-.308.196.031-.15.16-.196.308-.196zm-1.105.053c.258.057.03.677-.429.195.204-.158.343-.195.429-.195zm-5.521.037c.144.058-.03.68-.263.196.127-.15.215-.196.263-.196zm52.628.113c.176.057-.124.487-.76 1.053-.031.1-.062.138-.098.083-.259.221-.39.392-.82.67.23-.51.486-.79.73-1.076.003-.008.005 0 .008-.008.13-.393.203-.508.24-.459.009.011-.011.082-.007.106.313-.295.581-.41.707-.369zm-48.198.136c.246.061-.558.58-.662.142.38-.146.58-.18.662-.142zm3.482.007c.37-.1 1.007.778-.203.504-.016-.33.08-.465.203-.504zm-12.644.339c.227.077.108.878-.346.24.152-.2.27-.279.346-.24zm-17.6.03c-.953 0-2.054.105-3.302.308-2.747.448-4.738 1.273-5.972 2.482-1.233 1.21-1.973 2.888-2.211 5.025l5.228.082c.185-1.03.53-1.783 1.022-2.256.147-.145.36-.245.55-.361-.042-.04-.083-.07-.12-.203.181-.227.275-.281.338-.263.019-.02.008-.12.03-.128.13-.038.292.14.376.323.322-.133.631-.277 1.053-.346 1.473-.24 2.515-.167 3.121.21.605.365.998 1.084 1.174 2.16l.09.556c-.94.589-2.678 1.339-5.213 2.257-.603.22-1.078.442-1.587.661-.056.266-.334.588-.782.331-.033.016-.05.03-.083.046.48.732.86 1.846-.3 1.308-.147-.445-.203-.72-.264-.993-.438.231-.908.463-1.233.692-.047.033-.075.08-.12.113-.871.643-1.522 1.439-1.919 2.422-.419 1.023-.525 2.13-.33 3.325.011.071.039.132.052.203.396-.652.642-.963.745-.963.283-.044-.322 1.623-.655 1.301.13.535.309 1.035.55 1.49.134-.68.262-1.274.308-1.272.092.005.03 1.016-.075 1.708a5.933 5.933 0 0 0 1.677 1.707c1.453.976 3.261 1.288 5.438.933a8.93 8.93 0 0 0 3.377-1.264c1.013-.642 1.919-1.502 2.723-2.587.057.1.161.307.308.624.288.603.507 1.013.7 1.354.03.053.078.164.105.21l.677-.112c.121-.317.286-.47.474-.399.116.044.214.157.3.279l4.085-.67c-.656-.928-1.146-1.817-1.474-2.662-.177-.48-.346-1.483-.52-2.272a1.14 1.14 0 0 1-.495.06c-.103-.319-.037-.484.082-.534.086-.037.2-.013.309.03-.103-.509-.208-.74-.309-1.361l-.022-.158c-.155.104-.349.136-.587.008.226-.424.345-.496.489-.655l-.188-1.196c.09.278-.128.547-1.121.43-.069-.565.07-.823.27-.904.295-.117.72.156.843.437l-.692-4.506c-.108-.661-.25-1.112-.376-1.654-.053-.055-.103-.077-.173-.226.044-.093.06-.05.098-.105-.323-1.282-.682-2.336-1.12-2.889-.201-.261-.494-.46-.76-.677.187.312.216.766-.444.926-.274-.964-.121-1.272.098-1.234a6.626 6.626 0 0 0-1.828-.842c-.66-.204-1.461-.309-2.415-.309zm56.495.27c1.061-.251.17 3.595-1.745 1.971.823-1.35 1.392-1.886 1.745-1.97zm6.958.226c.101.14-.301 1.57-.812 1.7.508-1.403.751-1.784.812-1.7zm-47.92.436c.15.085-.071.89-.286.241.146-.196.236-.28.286-.24zm21.24.173c.243.082-.37 2.117-.57.768.318-.606.49-.806.57-.768zm-18.622.113c.142.07-.052.252-.301.444.163-.142.078-.342.3-.444zm-1.324.196c.275-.102.048.3-1.512 1.504.46-.796 1.237-1.404 1.512-1.504zm10.154.12c.217.05.148.654-.308.188.132-.15.236-.188.308-.188zm-25.115.015c.713-.118.656 1.43-1.767 2.482.631-1.739 1.34-2.412 1.767-2.482zm26.461.406c.382-.05-.155.897-.722.474.364-.323.595-.474.722-.474zm49.861.361c.67.125 1.203 1.43-.827 1.565-.026-1.291.425-1.638.827-1.565zm-23.655.219c.63.144 1.413 1.1-.376 1.015-.323-.897-.001-1.104.376-1.015zm-62.106.045c.334.158.163 1.72-.504.466.223-.416.393-.52.504-.466zm44.212.067c.21.058-.373.843-.519.263.292-.215.449-.263.52-.263zm-34.449.075c.527-.082 1.406.637-.3.414-.012-.27.124-.375.3-.414zm26.265.045c.228-.012.367 1.15-.233.52.072-.374.157-.52.233-.52zm-23.219.038c.15.085-.079.89-.293.24.146-.195.243-.278.293-.24zm9.116 0c.17.073-.374.418-.451.075.26-.073.395-.113.451-.075zm17.6 0c.394-.217 1.364.982-.09.798-.107-.49-.041-.725.09-.798zm20.105.045c.217.054.141.67-.316.203.132-.157.244-.203.316-.203zm-40.278.03c.21.058-.373.843-.519.264.293-.216.45-.264.52-.264zm37.781.203c.068.038-.052.577-.631 2.024-.116-.764.518-2.085.631-2.024zm-36.547.06c.727.024.955.925-1.496 2.626-.455-1.794.77-2.664 1.496-2.625zm-34.38.354c-.405-.03-.862.036-1.302.068-.071.303-.427.53-1.023.083-1.167.21-2.226.648-3.174 1.354-.37.275-.709.632-1.045.985.032.328-.022.714-.316 1.038-.068-.291-.06-.415-.09-.624-.408.483-.79 1.018-1.144 1.624-.82-1.024-1.78-1.733-2.866-2.128-1.086-.396-2.301-.484-3.655-.264-.84.137-1.6.437-2.324.805.178.205.057.703-.46.256-1.27.76-2.377 1.853-3.263 3.377l-.467-2.888-5.16.842.933 5.74c-.003.024.017.032.008.052l.594 3.625c.04-.03.09-.13.128-.15.464-.24.623.275-.06.58l.572 3.52c.059-.057.136-.159.165-.136.105.06.026.463-.105.474l.316 1.948c1.471-1.285 2.455-1.791 3.294-2.467a28.25 28.25 0 0 1 1.662-1.948c-.598.977-1.124 1.514-1.662 1.948-1.03 1.298-1.893 2.447-3.114 3.58l.715 4.378 5.596-.91-1.67-10.275c-.067-.412-.08-.701-.128-1.068-.193.012-.378-.042-.511-.218.255-.128.286-.094.466-.165-.145-1.25-.213-2.31-.105-2.979.162-.926.551-1.679 1.166-2.256a4.148 4.148 0 0 1 2.218-1.076c.717-.118 1.301-.068 1.76.158.473.223.862.616 1.159 1.181.125.238.251.684.383 1.188.248-.123.42-.18.49-.18.202.043-.203.484-.445.3.169.674.34 1.526.52 2.626l1.887 11.59 5.596-.91-1.654-10.153c-.045-.274-.048-.461-.083-.715-.113.105-.266.168-.481.03.194-.327.32-.42.428-.489-.167-1.363-.24-2.516-.12-3.264.154-.98.538-1.764 1.15-2.354.613-.59 1.309-.948 2.092-1.076 1.075-.175 1.94.093 2.587.805.485.548.892 1.867 1.234 3.964l1.797 11.049c.085.154.153.299.076.42l.097.618 5.596-.91-.075-.452c-.005.001-.01.007-.015.008.007-.015.01-.015.015-.03l-2.128-13.042c-.33-2.017-.755-3.447-1.287-4.287-.73-1.135-1.689-1.929-2.865-2.377a6.526 6.526 0 0 0-1.903-.421zm36.027.406c.376-.194.71.679-.338.625.085-.378.213-.56.338-.625zm-21.03.504c.248-.06.33.71-.285.406.097-.275.203-.367.285-.406zm-18.112.136c.347.08.174.896-.519.248.231-.208.404-.287.52-.248zm29.665 0c.27.084-.018.898-.474.24.228-.2.384-.279.474-.24zm-4.565.233c.149.085-.071.883-.286.233.146-.196.236-.272.286-.233zm-21.993.015c.403-.113 1.059.822-.241.549-.005-.35.106-.51.24-.55zm97.856.053c.26-.032.709.827-.143.406-.01-.291.056-.406.143-.406zm-60.466.135c.073.166-.079.893-.158.128.085-.166.135-.178.158-.128zm45.79 0v.015c-.131 1.112-.458 1.952-.977 2.527-.52.575-1.215.932-2.091 1.076-.48.078-.921.02-1.361-.038.281.95.147 2.549-1.106 4.34.97.075 1.98.076 3.091-.105 1.242-.203 2.34-.545 3.31-1.016.075-.12.146-.238.203-.27.053-.03.069.06.105.09.711-.38 1.364-.814 1.918-1.346 1.057-1.02 1.797-2.301 2.264-3.814-.002-.021-.007-.013-.008-.038.012-.023.011-.002.023-.022.11-.367.223-.734.3-1.129-.13.086-.355.108-.654-.112.17-.098.249-.092.361-.12zm-70.694.451c.162-.077.652.329 0 .27-.073-.169-.055-.231 0-.27zm22.527.053c.149.085-.071.883-.286.233.146-.196.236-.272.286-.233zm27.318.128c.224-.01.492 1.224-.173.541.029-.396.098-.538.173-.541zm22.03.045c.36-.06.26.81-.503.451.215-.305.384-.413.504-.451zm-32.094.007c-.006.107-1.806 1.425-.767.422.567-.365.768-.46.767-.422zm18.405.03c.287-.126.805.868-.15.587-.02-.383.054-.544.15-.586zm-16.24.046c.03.163-1.088 2.268-.518.692.369-.585.507-.746.519-.692zm-3.918.662c.109.053.028.334-.098.45.129.14.038.248-.82.046.022-.204.156-.278.316-.278.108-.001.16.075.264.12-.02-.038-.042-.032-.06-.09.212-.212.335-.287.398-.248zm-15.156.195c.434-.1 1.087.56-.278.414.013-.26.133-.375.278-.414zm39.135.038c.227.08.108.87-.346.233.151-.235.27-.272.346-.233zm-50.68.113c.394-.388.039 3.39-.662 2.12.31-1.394.53-1.99.662-2.12zm64.377.33c.08.128-.602 1.37-.391.377.259-.331.364-.419.391-.376zm-89.176.083c.178.078.148.463-.564.625.089-.318.223-.499.338-.58.087-.061.167-.07.226-.045zm12.26.15c.227.078.115.872-.338.234.15-.231.263-.272.338-.233zm46.822 0c.188.09-.178.949-.399.249.213-.208.336-.287.399-.248zm-56.344.076c.68-.295 2.538 2.146-.083 1.43-.245-.924-.144-1.33.083-1.43zm-14.509.15c.227.077.115.879-.338.241.15-.2.263-.28.338-.24zm99.984 0c.235.035.258 1.028-.293.384.112-.3.214-.384.293-.384zm-32.884.234c.177.073.235.88-.203.248.071-.208.144-.287.203-.248zm-19.466.158c.075.054-.008.254-.113.466.343-.181.596-.282.692-.248.31.077-.427.87-.73.338-.273.477-.826 1.03-1.39.76.697-.823 1.127-1.197 1.36-1.301.088-.04.145-.041.181-.015zm-42.723.195c.076.104-.032.683-.143.105.073-.142.119-.143.143-.105zm93.945.03c.636-.165-.341 1.118-1.233.76.635-.494 1.02-.706 1.233-.76zm-60.308.06c.217.054.148.67-.308.203.132-.157.236-.203.308-.203zm-38.428.038c.227.077.108.877-.346.24.151-.2.27-.278.346-.24zm110.63 0c.15.085-.071.883-.286.233.146-.196.236-.271.286-.233zm-109.79.068c.271 0 .207.814-.376.346.159-.258.286-.346.376-.346zm48.604.173c.144.058-.03.68-.263.195.127-.15.215-.195.263-.195zm-35.412.218c.15.085-.07.883-.286.233.146-.196.236-.272.286-.233zm100.16 0c.073.158-.078.885-.158.12.086-.158.135-.17.158-.12zm-98.262.24c.217.05.148.662-.308.196.132-.15.236-.195.308-.195zm74.667.241c-.383.109-1.07 1.105-.068 1.159.415-.974.298-1.224.068-1.159zm-43.836.143c.059-.039.111-.034.15.008.263.285.08 2.114-.88 1.925.3-1.282.554-1.816.73-1.933zm-14.456.045c.303-.01.435.173-.519.572-.257-.362.216-.572.519-.572zm45.22.03c.246-.303 1.17 1.17.083 1.023-.168-.621-.165-.923-.083-1.023zm16.6.038c.16-.065.632.462-.008.316-.071-.204-.046-.277.008-.316zm2.836 0c-.112.22-2.637 1.333-.94.226.743-.258.978-.295.94-.226zm1.85.105c.956-.154.364 1.095-3.106 2.144 1.402-1.452 2.532-2.051 3.106-2.144zm-106.12.046c.128-.111.823.328.135.33-.158-.196-.177-.292-.135-.33zm21.67.436c.414.022.153 1.794-.647.73.292-.553.509-.73.647-.73zm15.442.218c.535.02 1.112.454-.444.165.088-.123.265-.165.444-.165zm-25.385.068c.217.054.148.661-.308.195.132-.158.236-.195.308-.195zm29.785 0c.186.045.394.437.068 1.038-.42-.781-.255-1.085-.068-1.038zm60.51.022c.271.089-.01.89-.465.234.227-.235.376-.272.466-.234zm-81.39.444c.15.085-.071.883-.286.233.146-.196.236-.271.286-.233zm22.663.436l.18 1.114c.219 1.34.294 2.258.226 2.76-.093.765-.436 1.454-1.03 2.068-.302.304-.632.517-.963.73.716.316 1.333.874.075 1.068-.455-.342-.564-.51-.737-.707-.358.158-.72.313-1.106.376-.902.147-1.692-.013-2.37-.489-.676-.476-1.075-1.105-1.203-1.888-.13-.796.13-1.514.775-2.15.426-.398 1.39-.89 2.888-1.475 1.5-.586 2.587-1.052 3.265-1.407zm42.309.249c.202.127.747 1.361-.03.368-.07-.331-.038-.41.03-.368zm-45.904.112c.235.035.258 1.028-.293.384.112-.3.214-.384.293-.384zm44.55.226c.531-.25.51 1.145-.692.918.277-.571.515-.833.692-.918zm-59.353.384c.15.084-.071.89-.286.24.146-.196.236-.279.286-.24zm21.88 0c.506.084.015.92-.858.248.415-.208.69-.287.858-.248zm1.7 0c.388.084-.01.907-.67.24.324-.2.54-.279.67-.24zm37.518.15c.315-.038.417 1.004-.361.496.127-.35.256-.496.36-.496zm-50.981.098c.144.058-.03.672-.263.188.127-.15.215-.188.263-.188zm-12.584.323c.144.058-.03.673-.263.188.127-.15.215-.188.263-.188zm2.083 0c.285-.076.65.584-.21.384.028-.25.115-.345.21-.384zm-16.074.203c.27-.031 1.08.61.369.474.171.173-.38 1.378-.504.354.276-.322.416-.385.489-.354-.092-.018-.115-.005-.263-.052-.2-.303-.193-.422-.09-.422zm45.844.346c.107.094-.197.814-.684.775.41-.67.62-.832.684-.775zm-18.857.068c.556-.002 1.346 4.417-.195 6.28-.387-4.682-.138-6.28.195-6.28zm38.39.038c.16.115.256 1.285-.165.353.051-.312.112-.392.165-.353zm-27.206.24c.179.043.3.612-.173.188.054-.15.114-.188.173-.188zm24.927.234c.15.08-.071.882-.286.233.146-.193.237-.272.286-.233zm-62.294.503c.132-.008-.055.809-.248.36.128-.265.204-.357.248-.36zm38.774.113c.415-.025.228 1.073-.616.504.269-.362.478-.504.616-.504zm-23.783.3c.113.154-1.165 1.82-.692.52.464-.45.654-.57.692-.52zm-2.06.038c.149.081-.071.89-.286.24.146-.2.236-.278.285-.24zm23.293.113c.374.07-.4 1.31-.812.436.436-.359.688-.474.812-.436zm13.764 0c.069.177-.024 1.34-.127.27.064-.269.104-.328.127-.27zm11.628.15c.2-.19.99.778.083.655-.15-.405-.149-.593-.083-.655zm-60.218.113c.145.058-.023.68-.255.196.127-.154.207-.196.255-.196zm36.224.053c.2.236-.044 1.948-.36.429.176-.43.294-.51.36-.43zm10.23.18c.343.012-.124 3.207-.64 1.354.324-1.007.525-1.357.64-1.354zm-43.626.279c.286.042-.739 1.308-.804.489.47-.38.71-.49.804-.49zm18.954.218c.434.084-.051 1.946-.767.692.373-.547.623-.73.767-.692zm-35.773.18c.34-.189 2.084 1.82.309 1.106-.385-.732-.421-1.044-.309-1.106zm62.241 0c.262-.057.623.76-.18.422.019-.29.093-.422.18-.422zm-33.035.361c.306-.076.034 1.274-.511.677.24-.464.41-.638.511-.677zm56.186-10.059s.613.719.194 2.673c.075-.67-.42-.527-.194-2.673zm-32.486 10.51c.26-.146.552.726-.21.565.04-.353.124-.515.21-.565zm-5.761.15c.225.132.046.686-.369.076.171-.115.294-.118.369-.075zm-17.345.196c.673-.206.712.903-.85.745.328-.457.626-.675.85-.745zm29.455.339c.15.085-.071.883-.286.233.146-.196.236-.272.286-.233zm1.106.24c.512-.093.182 1.359-.798.745.367-.506.627-.706.798-.744zm-23.595.038c.475.045.888.407-.173.948-.84-.717-.303-.994.173-.948zm-7.853.166c.366-.023.607 1.698-.368.767.109-.56.246-.767.368-.767zm17.97.481c.556-.105.233.523-.655.527-.004.198-.092.341-.361 0-.014-.018-.023-.01-.038-.03.151-.2.263-.272.338-.234.03.01.005.07.023.098.263-.154.548-.335.692-.36zm6.987.075c.081.078-.243.423-.94.542.323-.284.564-.442.722-.512.118-.052.19-.055.218-.03zm-27.025.136c.367-.067.405.135-.993.812-.074-.41.625-.747.993-.812zm-25.897.286c.226.077.115.87-.339.233.152-.231.263-.272.339-.233zm42.098 0c.235.034.258 1.02-.294.376.113-.3.215-.376.294-.376zm-2.513.308c.679.168.035 2.093-2.52 2.34 1.23-1.91 2.114-2.44 2.52-2.34zm-23.03.083c.519-.005.182 1.297-.813.564.371-.415.64-.563.812-.564zm31.778.195c.283-.205 1.588.773.196.685-.271-.411-.29-.615-.196-.685zm-12.065.128c.3.073.3.892-.383.256.152-.216.284-.294.383-.256zm7.665.542c.27.088-.019.89-.474.233.227-.235.384-.272.474-.233zm-16.254.225c.177.073.235.882-.203.248.071-.207.144-.286.203-.248zm-11.508.076c.053.13-.739 1.19-.406.285.278-.285.387-.328.406-.285zm10.109.646c.227.077.115.878-.339.241.152-.2.263-.28.339-.24zm2.678.173c.45.043 1.158.975-.279.346.005-.273.128-.346.279-.346zm-4.258.279c.074.165-.078.885-.158.12.086-.166.135-.17.158-.12zm2.234.579c.248-.06.33.718-.286.414.098-.276.204-.414.286-.414zm1.219.052c.242.036-.327 1.724-.557.677.303-.519.476-.677.557-.677zm12.884.068c.073.166-.078.893-.158.128.085-.166.135-.178.158-.128zm-39.985.301c.348-.016.735.993-.278.451.055-.328.162-.447.278-.451zm27.672.098c.073.158-.078.885-.158.12.085-.158.135-.17.158-.12zm-2.888 1.391c.371-.187.002.88-.64.7.304-.434.516-.638.64-.7zm-22.482.083c.434-.198-.248 1.056-.85.79.438-.497.705-.725.85-.79zm12.636.55c.162.038-.333.34-.422.082.24-.081.367-.083.422-.083zm-15.735.623c.301.019.721.977-.211.391.019-.295.11-.39.21-.39zm.624.218c.453-.156.316 1.567-.64.94.275-.624.489-.886.64-.94zm2.09 1.008c.271.085-.01.898-.466.241.228-.2.377-.28.467-.24zm.73 1.129c.211.043.085.363-1 .82.242-.63.79-.863 1-.82zm10.37-10.81c.092-.21.912.902-.057 3.13.605-1.382-.034-2.918.057-3.13zm-.357 4.743c.19-.199 1.44.237.374 1.349-1.1.384-.564-1.149-.374-1.35zm-14.328-8.838c.148-1.456.983-1.106 0 .09z" style="font-feature-settings:normal;font-variant-caps:normal;font-variant-ligatures:normal;font-variant-numeric:normal" fill="#ee4023"/></svg>