<svg viewBox="0 0 17 17" xmlns="http://www.w3.org/2000/svg" width="16" height="16"><path d="M15.019 12.266c-.296.51-1.779.143-2.196.559-.417.416-.055 1.9-.565 2.193-.511.294-1.612-.765-2.181-.613-.57.151-.998 1.618-1.587 1.617-.589-.001-1.013-1.469-1.581-1.622-.57-.153-1.674.902-2.183.607-.51-.295-.143-1.778-.559-2.195s-1.9-.055-2.194-.566.766-1.611.614-2.18C2.435 9.496.97 9.068.97 8.479s1.469-1.013 1.622-1.582-.902-1.673-.607-2.182 1.778-.143 2.195-.56c.417-.415.055-1.9.566-2.193.51-.294 1.611.765 2.18.614.57-.152.998-1.618 1.587-1.617.589 0 1.013 1.468 1.582 1.621.569.154 1.673-.902 2.182-.607.51.296.143 1.779.56 2.196s1.9.055 2.193.565-.766 1.612-.614 2.18c.152.57 1.618.998 1.617 1.587 0 .59-1.468 1.013-1.622 1.582s.903 1.673.608 2.183zM8.57 10.78V4.477m0 8.233v-.105" fill="none" stroke-linecap="round" stroke-linejoin="round" stroke-width="1.15" stroke="#000"/></svg>