<svg viewBox="0 0 22 20" xmlns="http://www.w3.org/2000/svg" width="23" height="21"><path d="M10.36.79c-4.336 0-7.863 3.526-7.863 7.862s3.527 7.863 7.863 7.863 7.863-3.527 7.863-7.863S14.696.79 10.36.79zm0 1.15a6.705 6.705 0 0 1 6.713 6.712 6.705 6.705 0 0 1-6.713 6.713 6.705 6.705 0 0 1-6.713-6.713A6.705 6.705 0 0 1 10.36 1.94z" style="font-feature-settings:normal;font-variant-alternates:normal;font-variant-caps:normal;font-variant-ligatures:normal;font-variant-numeric:normal;font-variant-position:normal;isolation:auto;mix-blend-mode:normal;shape-padding:0;text-decoration-color:#000;text-decoration-line:none;text-decoration-style:solid;text-indent:0;text-orientation:mixed;text-transform:none" color="#000" white-space="normal"/><path d="M15.46 13.45a.575.575 0 0 0-.4.986l4.789 4.79a.575.575 0 1 0 .812-.815l-4.787-4.787a.575.575 0 0 0-.414-.174z" style="font-feature-settings:normal;font-variant-alternates:normal;font-variant-caps:normal;font-variant-ligatures:normal;font-variant-numeric:normal;font-variant-position:normal;isolation:auto;mix-blend-mode:normal;shape-padding:0;text-decoration-color:#000;text-decoration-line:none;text-decoration-style:solid;text-indent:0;text-orientation:mixed;text-transform:none" color="#000" white-space="normal"/></svg>