<svg viewBox="0 0 17 17" xmlns="http://www.w3.org/2000/svg" width="16" height="16"><rect x="2.325" y="8.546" width="12.55" height="7.347" rx=".295" ry=".288" fill="none" stroke-linecap="round" stroke-linejoin="round" stroke-width="1.15" stroke="#000"/><path d="M7.014 12.55H4.803L2.449 8.673m12.32-.018l-2.365 3.895h-2.275" fill="none" stroke-linecap="round" stroke-linejoin="round" stroke-width="1.15" stroke="#000"/><rect x="7.018" y="11.63" width="3.098" height="1.815" rx=".294" ry=".294" fill="none" stroke-linecap="round" stroke-linejoin="round" stroke-width="1.15" stroke="#000"/><path d="M3.041 8.141c0-.443.428-.803.955-.803s.956.36.956.803"/><path d="M3.985 7.692S5.688.975 8.559.975c2.871 0 4.775 6.655 4.775 6.655" fill="none" stroke-width="1.15" stroke="#000"/><path d="M12.4 8.141c0-.443.428-.803.955-.803.528 0 .956.36.956.803"/></svg>