<svg viewBox="0 0 17 17" xmlns="http://www.w3.org/2000/svg" width="16" height="16"><path d="M10.78 3.368l-1.916-.1c-.476-.036-.878.234-1.162.519l-3.18 3.18a1.078 1.078 0 0 0-.12.102L1.48 9.99a1.063 1.063 0 0 0 0 1.507l4.107 4.107a1.063 1.063 0 0 0 1.507 0l2.921-2.92c.038-.039.071-.08.103-.122l3.18-3.18c.232-.232.507-.493.486-.967l-.231-4.401a.547.547 0 0 0-.162-.356l-.012-.012" fill="none" stroke-linecap="round" stroke-linejoin="round" stroke-width="1.15" stroke="#000"/><path d="M8.013 14.69L2.532 9.114" fill="none" stroke-width="1.15" stroke="#000"/><path d="M11.63 5.416c-.94-.94-.882-2.522.13-3.533 1.01-1.011 2.593-1.069 3.533-.13.852.852.886 2.234.13 3.236" fill="none" stroke-linecap="round" stroke-linejoin="round" stroke-width="1.15" stroke="#000"/></svg>