<svg viewBox="0 0 50 32" xmlns="http://www.w3.org/2000/svg" xmlns:xlink="http://www.w3.org/1999/xlink" width="50" height="32"><defs><linearGradient id="a" x1="34.17" x2="48.5" y1="3" y2="3" gradientUnits="userSpaceOnUse"><stop offset="0" stop-color="#00b4e6"/><stop offset="1" stop-color="#088ccb"/></linearGradient><linearGradient id="c" x1="475.2" x2="553.1" y1="319.7" y2="319.7" gradientUnits="userSpaceOnUse" xlink:href="#a"/><clipPath id="b"><path d="M0 595.3h841.9V0H0z"/></clipPath></defs><rect x=".5" y=".5" width="49" height="31" rx="4" ry="4" fill="none" stroke="#ccc"/><g clip-path="url(#b)" transform="matrix(.1476 0 0 -.1476 -36.61 60.42)"><path d="M435.9 327l-16.7-36.18h-1.694v44.05h-23.72v-74.55h20.13c5.286 0 10.09 3.074 12.31 7.874l16.7 36.18h1.694v-44.05h23.72v74.55h-20.13A13.564 13.564 0 0 1 435.9 327m-88.9-1.9l-9.881-34.25h-1.694l-9.881 34.25a13.552 13.552 0 0 1-13.02 9.797h-23.69v-74.55h23.72v44.05h1.694l13.55-44.05h16.94l13.55 44.05h1.695v-44.05h23.72v74.55h-23.69a13.547 13.547 0 0 1-13.02-9.797M478.5 301v-40.66h23.67v23.72h25.46c11.06 0 20.44 7.078 23.94 16.94z" fill="#319b42"/></g><path d="M475.2 334.9c3.189-17.35 18.37-30.5 36.64-30.5h40.79a25.56 25.56 0 0 1 .51 5.082c0 14.04-11.38 25.42-25.41 25.42z" transform="matrix(.1476 0 0 -.1476 -36.61 60.42)" fill="url(#c)"/></svg>