<svg viewBox="0 0 17 17" xmlns="http://www.w3.org/2000/svg" width="16" height="16"><path d="M5.967 10.21l-.016 1.501H1.135v-1.507l.422-.01c-.384-1.204-.499-2.933.304-3.964 1.949 1.299 4.586.42 6.039-.841.352.482.749.891 1.172 1.24 2.567 2.119 6.107 2.234 6.485 2.61.44.44.497 1.186.497 1.186s-3.415 1.297-5.67 1.297-4.417-1.511-4.417-1.511h-1.78" fill="none" stroke-linejoin="round" stroke-width="1.15" stroke="#000"/><path d="M12.83 8.597v2.54" fill="none" stroke-width="1.15" stroke="#000"/><path d="M9.906 7.49l-.56.909m-.648-1.912l-.765.997" fill="none" stroke-linecap="round" stroke-width="1.15" stroke="#000"/></svg>