<svg id="SVGRoot" viewBox="0 0 50 32" xmlns="http://www.w3.org/2000/svg" width="50" height="32"><rect x=".5" y=".5" width="49" height="31" rx="4" ry="4" fill="none" stroke="#ccc"/><path class="cls-2" d="M16.18 56.79l2.418-14.2h3.87l-2.421 14.2z" fill="#005098" transform="translate(5.038 -24.67) scale(.8187)"/><path d="M34.09 42.94a9.996 9.996 0 0 0-3.468-.596c-3.824 0-6.528 1.926-6.528 4.686-.022 2.04 1.923 3.18 3.392 3.857 1.469.678 2.013 1.14 2.005 1.762 0 .952-1.202 1.387-2.315 1.387a8.114 8.114 0 0 1-3.658-.748l-.498-.225-.544 3.18c.903.397 2.576.74 4.311.758 4.08 0 6.71-1.904 6.74-4.852.014-1.616-1.017-2.845-3.25-3.857-1.36-.658-2.176-1.088-2.176-1.76 0-.59.702-1.22 2.217-1.22a7.14 7.14 0 0 1 2.897.543l.348.164.525-3.076m6.932-.343c-.927 0-1.633.253-2.027 1.178l-5.746 13.01h4.062s.664-1.749.816-2.133h4.957c.117.498.47 2.127.47 2.127h3.591l-3.13-14.18zm.275 3.824l.272 1.223.894 4.1-3.223.006c.321-.816 1.541-3.97 1.541-3.97s.32-.815.516-1.358zM12.94 42.6l-3.789 9.683-.403-1.966c-.707-2.277-2.91-4.724-5.358-5.957l3.465 12.42h4.094l6.09-14.18H12.94" fill="#005098" transform="translate(5.038 -24.67) scale(.8187)"/><path class="cls-3" d="M5.631 42.6H-.608l-.049.296c4.86 1.168 8.067 4.007 9.4 7.42l-1.36-6.527c-.234-.9-.914-1.167-1.754-1.2" fill="#f7a600" transform="translate(5.038 -24.67) scale(.8187)"/><style>.cls-2{fill:#005098}.cls-3{fill:#f7a600}</style></svg>