<svg id="SVGRoot" version="1.1" viewBox="0 0 17 17" xmlns="http://www.w3.org/2000/svg" width="16" height="16">
  <path d="m9.988 9.663c1.597 0.6779 3.571 1.621 5.37 2.396 0.3332 0 0.6014-0.2839 0.6014-0.6365v-5.845c0-0.3526-0.2682-0.6365-0.6014-0.6365-2 0.862-3.877 1.693-5.336 2.312m-3.046 0.06988c-1.471-0.6245-3.291-1.502-5.333-2.382-0.3332 0-0.6014 0.2839-0.6014 0.6365v5.845c0 0.3526 0.2682 0.6365 0.6014 0.6365 1.793-0.7728 3.729-1.65 5.323-2.327" style="fill:none;stroke-linecap:round;stroke-linejoin:round;stroke-width:1.082;stroke:#000000"/>
  <rect x="7.033" y="6.457" width="2.927" height="4.014" rx=".2687" ry=".2687" style="fill:none;stroke-linecap:round;stroke-linejoin:round;stroke-width:1.082;stroke:#000000"/>
  <path d="m10.16 8.535h1.219" style="fill:none;stroke-linecap:round;stroke-width:1px;stroke:#000000"/>
  <path d="m5.409 8.535h0.1563" style="fill:none;stroke-linecap:round;stroke-width:1px;stroke:#000000"/>
</svg>
