<svg id="SVGRoot" version="1.1" viewBox="0 0 17 17" xmlns="http://www.w3.org/2000/svg"  width="16" height="16">
  <rect x="2.325" y="8.546" width="12.55" height="7.347" rx=".2951" ry=".2879" style="fill:none;stroke-linecap:round;stroke-linejoin:round;stroke-width:1.15;stroke:#000000"/>
  <path d="m7.014 12.55h-2.211l-2.354-3.877m12.32-0.01777-2.365 3.895h-2.275" style="fill:none;stroke-linecap:round;stroke-linejoin:round;stroke-width:1.15;stroke:#000000"/>
  <rect x="7.018" y="11.63" width="3.098" height="1.815" rx=".2943" ry=".2943" style="fill:none;stroke-linecap:round;stroke-linejoin:round;stroke-width:1.15;stroke:#000000"/>
  <path d="m3.041 8.141c0-0.4433 0.4278-0.8026 0.9554-0.8026s0.9555 0.3593 0.9555 0.8026" style="fill:#000000"/>
  <path d="m3.985 7.692s1.703-6.717 4.574-6.717c2.871 0 4.775 6.655 4.775 6.655" style="fill:none;stroke-width:1.15;stroke:#000000"/>
  <path d="m12.4 8.141c0-0.4433 0.4278-0.8026 0.9554-0.8026 0.5277 0 0.9555 0.3593 0.9555 0.8026" style="fill:#000000"/>
</svg>
