<svg id="SVGRoot" version="1.1" viewBox="0 0 17 17" xmlns="http://www.w3.org/2000/svg"  width="16" height="16">
  <path d="m10.78 3.368-1.916-0.09938c-0.4763-0.03667-0.8781 0.2338-1.162 0.5182l-3.18 3.18c-0.04194 0.03115-0.08276 0.06437-0.1209 0.1025l-2.921 2.921c-0.4174 0.4174-0.4174 1.089 0 1.507l4.107 4.107c0.4174 0.4174 1.089 0.4174 1.507 0l2.921-2.921c0.03809-0.03809 0.07131-0.07891 0.1025-0.1209l3.18-3.18c0.2327-0.2327 0.5072-0.4932 0.4867-0.9678l-0.2316-4.401c-0.0072-0.1363-0.06844-0.2621-0.1621-0.3558l-0.01184-0.01184" style="fill:none;stroke-linecap:round;stroke-linejoin:round;stroke-width:1.15;stroke:#000000"/>
  <path d="m8.013 14.69-5.481-5.576" style="fill:none;stroke-width:1.15;stroke:#000000"/>
  <path d="m11.63 5.416c-0.9399-0.9399-0.8819-2.522 0.1296-3.533 1.011-1.011 2.593-1.069 3.533-0.1296 0.8519 0.8519 0.8867 2.234 0.1301 3.236" style="fill:none;stroke-linecap:round;stroke-linejoin:round;stroke-width:1.15;stroke:#000000"/>
</svg>
