<?xml version="1.0" encoding="utf-8"?>
<!-- Generator: Adobe Illustrator 19.2.0, SVG Export Plug-In . SVG Version: 6.00 Build 0)  -->
<svg version="1.1" id="Слой_1" xmlns="http://www.w3.org/2000/svg" xmlns:xlink="http://www.w3.org/1999/xlink" x="0px" y="0px"
	 viewBox="0 0 57.5 61.3" style="enable-background:new 0 0 57.5 61.3;" xml:space="preserve" width="50" height="53">
<style type="text/css">
	.st0{fill:none;stroke:#000000;stroke-width:2;stroke-miterlimit:10;}
</style>
<circle class="st0" cx="14.8" cy="51.8" r="8.4"/>
<circle class="st0" cx="42.8" cy="51.8" r="8.4"/>
<path class="st0" d="M20.4,9.5c0-4.6,3.8-8.4,8.4-8.4s8.4,3.8,8.4,8.4"/>
<line class="st0" x1="20.4" y1="9.5" x2="20.4" y2="28.4"/>
<line class="st0" x1="37.2" y1="9.5" x2="37.2" y2="28.4"/>
<path class="st0" d="M6.4,51.8h-4c-0.8,0-1.4-0.6-1.4-1.4V19c0-0.8,0.6-1.4,1.4-1.4h52.6c0.8,0,1.4,0.6,1.4,1.4v31.4
	c0,0.8-0.6,1.4-1.4,1.4h-3.8"/>
<line class="st0" x1="34.4" y1="51.8" x2="23.2" y2="51.8"/>
</svg>
