<svg xmlns="http://www.w3.org/2000/svg" xmlns:xlink="http://www.w3.org/1999/xlink" width="62" height="65" viewBox="0 0 62 65"><defs><path id="e78da" d="M1129 1528c0-1.1.9-2 2-2h54a2 2 0 0 1 2 2v31a2 2 0 0 1-2 2h-54a2 2 0 0 1-2-2z"/><path id="e78db" d="M1343.5 1426a9.5 9.5 0 1 1 0 19 9.5 9.5 0 0 1 0-19z"/><path id="e78dc" d="M1348 1393a10 10 0 0 1 20 0"/><path id="e78dd" d="M1370.5 1426a9.5 9.5 0 1 1 0 19 9.5 9.5 0 0 1 0-19z"/><path id="e78dh" d="M1366 1392h2v20h-2z"/><path id="e78dj" d="M1348 1392h2v20h-2z"/><clipPath id="e78de"><use fill="#fff" xlink:href="#e78da"/></clipPath><clipPath id="e78df"><use fill="#fff" xlink:href="#e78db"/></clipPath><clipPath id="e78dg"><use fill="#fff" xlink:href="#e78dc"/></clipPath><clipPath id="e78di"><use fill="#fff" xlink:href="#e78dd"/></clipPath></defs><g><g transform="translate(-1325 -1381)"><use fill="#fff" fill-opacity="0" stroke="#000" stroke-miterlimit="50" stroke-width="4" clip-path="url(&quot;#e78de&quot;)" xlink:href="#e78da"/></g><g transform="translate(-1325 -1381)"><use fill="#efefef" xlink:href="#e78db"/><use fill="#fff" fill-opacity="0" stroke="#000" stroke-miterlimit="50" stroke-width="4" clip-path="url(&quot;#e78df&quot;)" xlink:href="#e78db"/></g><g transform="translate(-1325 -1381)"><use fill="#efefef" xlink:href="#e78dc"/><use fill="#fff" fill-opacity="0" stroke="#000" stroke-miterlimit="50" stroke-width="4" clip-path="url(&quot;#e78dg&quot;)" xlink:href="#e78dc"/></g><g transform="translate(-1325 -1381)"><use xlink:href="#e78dh"/></g><g transform="translate(-1325 -1381)"><use fill="#efefef" xlink:href="#e78dd"/><use fill="#fff" fill-opacity="0" stroke="#000" stroke-miterlimit="50" stroke-width="4" clip-path="url(&quot;#e78di&quot;)" xlink:href="#e78dd"/></g><g transform="translate(-1325 -1381)"><use xlink:href="#e78dj"/></g></g></svg>