<svg version="1.1" viewBox="0 0 259 73" xmlns="http://www.w3.org/2000/svg" width="259" height="73">
  <path d="m61.91 12.01c2.382 0 4.579 0.3834 6.59 1.151 2.026 0.7529 3.773 1.82 5.243 3.2 1.469 1.367 2.618 3.012 3.445 4.937 0.8274 1.924 1.241 4.051 1.241 6.38 0 1.325-0.1569 2.628-0.4707 3.911-0.3138 1.283-0.7775 2.496-1.391 3.639-0.5991 1.143-1.341 2.203-2.225 3.179-0.8844 0.9621-1.897 1.799-3.039 2.51-1.127 0.6972-2.375 1.241-3.745 1.631-1.369 0.4045-2.846 0.6065-4.429 0.6065-2.382 0-4.586-0.3695-6.612-1.108-2.011-0.7529-3.752-1.813-5.221-3.18-1.469-1.367-2.618-3.005-3.445-4.915-0.8274-1.924-1.241-4.058-1.241-6.401 0-1.325 0.1569-2.628 0.4707-3.911 0.3138-1.283 0.7703-2.503 1.369-3.66 0.6134-1.157 1.355-2.217 2.225-3.179 0.8844-0.9763 1.89-1.82 3.017-2.531 1.141-0.7111 2.397-1.262 3.766-1.652 1.384-0.4045 2.867-0.6065 4.451-0.6065zm1.22 29.26c1.583 0 2.936-0.2785 4.248-0.8368 1.312-0.558 2.392-1.367 3.333-2.426 0.9558-1.06 1.698-2.35 2.225-3.87 0.5278-1.534 0.803-3.275 0.9349-5.208 0.1432-2.099 0.316-4.135-0.1975-5.961-0.4993-1.841-1.248-3.43-2.247-4.769-0.9986-1.353-2.247-2.406-3.745-3.159-1.484-0.7671-3.79-1.151-5.773-1.151-1.583 0-3.175 0.2784-4.487 0.8368-1.312 0.5437-2.446 1.339-3.402 2.385-0.9415 1.046-1.676 2.329-2.204 3.849-0.5278 1.52-1.174 3.249-1.174 5.187 0 2.134 0.05872 4.128 0.558 5.982 0.4993 1.841 1.248 3.437 2.247 4.79 0.9986 1.353 2.438 2.42 3.936 3.2 1.498 0.7671 3.763 1.151 5.746 1.151z" style="fill:#000000;font-feature-settings:normal;font-variant-caps:normal;font-variant-ligatures:normal;font-variant-numeric:normal;stroke-width:3.335"/>
  <path d="m88.35 14.51c-0.02911 1.562-0.04499 3.075-0.07399 4.539-0.01437 0.6276-0.02911 1.269-0.04348 1.924 0 0.6554-0.0072 1.304-0.02155 1.945 0 0.6276-0.0072 1.234-0.02155 1.82v1.527c0 0.9342 0.0072 2.064 0.02155 3.388 0.01437 1.325 0.02911 2.684 0.04348 4.079 0.02911 1.394 0.06522 2.638 0.1087 3.921 0.04348 1.283 0.03365 2.35 0.0915 3.2 0.2029 0.03554 1.139 0.06424 1.473 0.1035 0.3479 0.03554 0.7102 0.05713 1.087 0.08212 0.3769 0.03554 0.7465 0.03928 1.109 0.04284 0.3624 0.03554 0.6668 0.03554 0.9131 0.03554 1.015 0 2.051-0.06428 3.109-0.1892 1.073-0.1392 2.102-0.3916 3.087-0.7532 1-0.3623 1.935-0.8575 2.805-1.485 0.8842-0.6415 1.652-1.464 2.305-2.468 0.6668-1.004 1.189-2.115 1.565-3.523 0.3769-1.422 0.8039-3.095 0.8039-5.02 0-2.134 0.2569-4.03-0.2794-5.689-0.5365-1.673-1.326-3.082-2.37-4.225-1.029-1.143-2.312-2.008-3.848-2.593-1.522-0.5997-4.04-0.8996-6.025-0.8996-0.3914 0-0.8334 0-1.326 0.04284-0.4928 0.03569-0.9856 0.04641-1.478 0.06426-0.4783 0.03569-0.9349 0.05355-1.37 0.08567-0.4203 0.03569-1.376 0.04998-1.651 0.06069zm-4.141-1.882c0.3334 0.03569 0.645 0.03927 0.9349 0.04284 0.2464 0.03569 0.5001 0.03927 0.761 0.04284h0.6305c0.2754 0 0.732 0 1.37-0.04284 0.6523-0.03569 1.391-0.05712 2.218-0.08211 0.8262-0.03569 1.681-0.05712 2.566-0.08567 0.8987-0.03569 1.739-0.04284 2.522-0.04284 2.102 0 4.436 0.2499 6.335 0.7529 1.899 0.5023 3.566 1.325 5.001 2.468 1.435 1.143 2.239 2.642 3.079 4.497 0.8407 1.854 1.261 4.135 1.261 6.84 0 1.938-0.2247 3.681-0.674 5.229-0.4348 1.548-1.051 2.819-1.848 4.004-0.7972 1.186-1.754 2.203-2.87 3.054-1.102 0.8364-2.326 1.527-3.674 2.071-1.333 0.5437-2.761 0.941-4.283 1.192-1.522 0.2499-3.095 0.3766-4.718 0.3766-0.5798 0-1.283-0.03554-2.109-0.06424-0.8117-0.03554-1.631-0.06424-2.457-0.1035-0.8262-0.03928-1.609-0.08212-2.348-0.125-0.7247-0.03554-1.29-0.04284-1.696-0.04284v-0.08567c0.08696-0.2927 0.1667-0.6554 0.2392-1.088 0.08696-0.4323 0.1594-0.9688 0.2174-1.61 0.05796-0.6415 0.1014-1.401 0.1304-2.28 0.02911-0.8924 0.04348-1.836 0.04348-3.021v-13.62c0-1.185-0.01437-2.224-0.04348-3.116-0.02911-0.9064-0.07248-1.68-0.1304-2.322-0.058-0.6554-0.1304-1.206-0.2174-1.652-0.07248-0.4462-0.1522-0.8157-0.2392-1.109z" style="fill:#000000;font-feature-settings:normal;font-variant-caps:normal;font-variant-ligatures:normal;font-variant-numeric:normal;stroke-width:3.361"/>
  <path d="m42.87 20.38c0 2.904-0.7979 4.396-2.945 5.908-2.117 1.482-4.006 2.268-7.666 2.223h-4.522v14.1h-3.505v-30.04h9.479c3.055 0 5.264 0.5142 7.141 1.983 1.373 1.075 2.018 3.4 2.018 5.82zm-15.13 6.539h4.658c1.422 0 2.626-0.4552 3.63-0.9891 2.422-1.287 2.997-3.289 2.965-5.358-0.07694-5.052-1.943-5.757-4.553-6.501-1.145-0.3252-4.894-0.09074-6.7 0.0983z" style="fill:#000000;font-feature-settings:normal;font-variant-caps:normal;font-variant-ligatures:normal;font-variant-numeric:normal;stroke-width:3.492"/>
  <path d="m121.8 12.82v30.04h-4.174v-30.04z" style="fill:#000000;font-feature-settings:normal;font-variant-caps:normal;font-variant-ligatures:normal;font-variant-numeric:normal;stroke-width:3.492"/>
  <path d="m154.1 12.82v18.42c0 2.813-0.3288 4.93-0.9865 6.352-0.2959 0.6352-0.7727 1.361-1.43 2.178-0.6248 0.7864-1.365 1.422-2.22 1.906-2.17 1.149-4.883 1.724-8.139 1.724-8.155 0-12.23-3.856-12.23-11.57v-19.01h4.446v19.37c0 0.8772 0.114 1.588 0.1468 2.132s0.1973 1.316 0.4932 2.314c0.3288 0.9981 1.049 1.8 1.575 2.405 0.559 0.6049 1.121 1.149 2.272 1.633 1.184 0.4839 3.069 0.7259 4.681 0.7259 6.149 0 9.224-3.025 9.224-9.074v-19.51z" style="fill:#000000;font-feature-settings:normal;font-variant-caps:normal;font-variant-ligatures:normal;font-variant-numeric:normal;stroke-width:3.641"/>
  <path d="m177.8 35.51 12.39-23.01h0.9447l3.937 30.28-3.848 0.276-2.502-22.92-0.147-0.06901-11.72 22.72h-0.0988l-10.96-23.07h-0.1815l-2.2 23.48-2.874-0.4136 4.169-30.28 0.9816 0.01463z" style="fill:#000000;font-feature-settings:normal;font-variant-caps:normal;font-variant-ligatures:normal;font-variant-numeric:normal;stroke-width:3.492"/>
  <path d="m232.7 21.94-4.97 4.135 0.7015 4.12-0.9452 0.155c-0.4348 0.6514-1.182 1.498-0.576 0.1096 0.0151 0 8e-3 -0.0015 0.0223 0l-1.026 0.1701 0.384 2.282c0.1067-0.04537 0.2069-0.07183 0.2806-0.04537 0.3711 0.1399 0.304 1.006-0.1181 1.012l0.192 1.13 2.526-0.428 1.137 6.757c0.1132 0.06428 0.1224 0.2344 0.0517 0.31l0.3323 1.979c0.3274 1.94 0.6021 3.214 0.8271 3.833 0.2948 0.8741 0.6752 1.551 1.13 2.024 0.4655 0.4571 1.12 0.7853 1.972 0.9894 0.4289 0.0983 0.8792 0.1512 1.344 0.155-0.0366-0.9528 0.1836-1.73 0.3545-1.883 0.1751-0.1588 0.1866 0.4284-0.2733 1.875 0.4311 3.79e-4 0.875-0.0378 1.337-0.1096 0.7094-0.121 1.36-0.3025 1.986-0.5168-0.0614 0-0.1298-0.06428-0.1994-0.2079 0.1917-0.2344 0.3159-0.3025 0.384-0.2798 0.1298 0.04159 0.0556 0.363-0.0886 0.4579 0.7633-0.2684 1.474-0.5932 2.112-1.004l-0.9821-3.449c-0.4202 0.4979-1.074 1.069-2.274 1.647 0.4466-0.9342 0.8885-1.599 1.292-2.053-0.4822 0.2269-1.022 0.5214-1.344 0.5758-0.3646 0.06428-0.6911 0.03781-0.9821-0.1096-0.2782-0.1399-0.4814-0.3441-0.6056-0.6057-0.0893-0.2155-0.2766-1.224-0.4726-2.318-0.2217-0.06806-0.4354-0.1285-0.7384-0.2873-0.079-1.274 0.0687-1.895 0.3101-2.134l-1.108-6.565 3.751-0.6348-0.7384-4.372-2.607 0.4356c0.0487 0.7547-0.5934 2.737-1.824 2.902 0.5641-1.511 0.9807-2.355 1.285-2.813l-0.6055 0.1021-0.6351-3.781zm-1.89 3.796c0.5458 0.08318 0.9303 0.4787-0.4726 0.938-0.7804-0.7841-0.0732-1.019 0.4726-0.938zm1.588 0.3025c0.1401 0.1512-0.3904 0.8949-2.437 2.555 0.1007-1.434 2.203-2.809 2.437-2.555zm0.3988 0.901c0.2491-0.0378 0.6471 0.7505-0.1477 0.3841 9.8e-4 -0.2684 0.0647-0.3705 0.1477-0.3841zm-0.4062 1.322c0.4147 0.0378 0.3022 1.334-0.5834 0.5168 0.2453-0.3993 0.4451-0.5271 0.5834-0.5168zm-44.98 0.6204-5.487 0.9305 2.429 14.42c0.7237 0.2193 1.201 0.8099 0.1403 0.8272l0.1108 0.6496c0.0697-0.0037 0.1405-0.04159 0.2068-0.0378 0.4544 0.1323 0.7383 0.8061 0.0886 1.765l1.853 10.99 5.487-0.9305-0.6499-3.869c-0.335 0.9581-0.8388 2.069-0.5908 0.4575 0.3346-0.6495 0.3808-0.6352 0.5243-0.8416l-0.3988-2.385 2.105-3.109 0.5169 0.6348c0.1138-0.08697 0.2348-0.1815 0.2732-0.1777 0.1002 0-0.0178 0.2382-0.1551 0.3327l0.96 1.189c0.7123-1.792 1.723-2.807 2.274-2.932 0.677-0.155 0.56 1.081-1.617 3.759l4.534 5.634 3.744-0.6352c0.1626-1.294 0.3664-2.146 0.576-2.296l-2.71-3.286c-0.3538 0.4945-0.9269 1.147-0.3323 0.07561 0.1725-0.1664 0.1404-0.1059 0.2363-0.1853l-5.413-6.55 0.768-1.152c0.0155-2.497 0.8337-3.565 1.278-3.449 0.2696 0.07183 0.3382 0.611 0.0371 1.455l2.821-4.268c0.1632-0.4609 0.308-0.7142 0.3988-0.7089 0.0163 7.56e-4 0.0163 0.05293 0.0295 0.06806l0.4725-0.7161-4.748 0.7974c0.229 0.4272 0.4105 1.412-0.2732 1.196-0.0462-0.5955-0.0284-0.9324 8e-3 -1.152l-1.743 0.2949-0.1403 0.2231c8e-3 0.6904-0.3457 2.065-1.329 2.954 0.1368-0.6605 0.2451-0.955 0.3692-1.403l-4.091 6.616-2.378-14.11c-0.1159 0-0.1478 0.04159-0.2806 0.04537-0.0366-0.4231 0.0314-0.7006 0.1329-0.9229zm46.37 0.6424c0.6894 0.07939 0.3449 0.8904-1.034 0.242 0.4596-0.2155 0.804-0.2722 1.034-0.242zm-3.773 0.2306c0.1465 0.08318-0.0698 0.8666-0.2806 0.2306 0.1433-0.2079 0.2318-0.2571 0.2806-0.2306zm-45.99 1.359c0.4194 0.07561 0.4064 0.8893-0.5465 0.2495 0.2162-0.2193 0.4067-0.276 0.5465-0.2495zm48.69 0.2873c0.5415 0.03781 0.1018 1.686-0.8862 0.6866 0.4138-0.5168 0.7057-0.6938 0.8862-0.6866zm-17.39 0.363c-0.5745 0-1.181 0.06427-1.794 0.1475-0.0132 0.03781-0.0159 0.03781-0.0295 0.05293-1.815 0.9104-2.5 4.438-3.522 4.896 5e-3 -1.157 1.009-3.04 2.082-4.637-1.923 0.5255-3.487 1.554-4.697 3.079h0.0295c0.7666 0.4499 1.717 5.732-0.6055 3.537-0.0276-1.617 0.0567-2.546 0.192-3.057-0.0624 0.09075-0.1391 0.1588-0.1994 0.2495-1.469 2.243-1.917 5.085-1.337 8.522 0.2607 1.545 0.7078 2.898 1.314 4.091 3e-3 -0.1777 0.0416-0.2949 0.1181-0.3025 0.3226-0.0378 0.9841 1.049 0.1255 0.7161 0.3278 0.5815 0.6989 1.119 1.115 1.61 0.0249-0.07183 0.0186-0.1021 0.1255-0.2873 0.3965-0.3592 0.5357-0.4465 0.5391-0.3917 6e-3 0.0983-0.3866 0.5751-0.5981 0.7535 0.1745 0.2004 0.3273 0.4265 0.5169 0.6129 1.206 1.169 2.678 1.859 4.357 2.171 0.0448-0.4322 0.2648-0.704 0.4726-0.7384 0.238-0.03781 0.4027 0.2269 0.192 0.8197 0.5059 0.05671 1.02 0.1021 1.565 0.08696-0.1076 0-0.2462 0-0.4209-0.08696 0.2269-0.189 0.3942-0.2647 0.5095-0.2647 0.2595 0 0.234 0.3214-0.0886 0.3554 0.6522 0 1.307-0.03781 2.016-0.155 0.0442 0 0.0819-0.0378 0.1255-0.0378 0.4625-1.826 0.7813-2.9 0.8566-2.784 0.0902 0.1399-0.0743 1.348-0.3028 2.658 1.952-0.4299 3.546-1.209 4.741-2.371 1.345-1.312 2.205-3.031 2.57-5.154h-5.627c-0.1236 1.092-0.4384 1.921-0.9452 2.489-0.5067 0.5664-1.186 0.9244-2.046 1.071-1.263 0.2117-2.399-0.05671-3.397-0.8125-1-0.7686-1.658-1.968-1.972-3.589l2.895-0.4874c0.5357-0.8896 1.042-1.723 1.174-1.839 0.2855-0.2495-0.1993 0.8775-0.7016 1.757l6.262-1.056c-0.0137 0-0.0155-7.56e-4 -0.0295 0 0.0769-0.2269 0.2035-0.2987 0.3323-0.2873 0.1171 0 0.1614 0.121 0.2363 0.2079l3.581-0.6053c-0.1349-0.9006-0.3213-1.716-0.5243-2.503-0.0802 0.2458-0.3642 0.645-1.056 1.24-0.0303-0.9705 0.5952-1.509 0.9157-1.536 0.0415-0.0037 0.0594 0.03781 0.0886 0.03781-0.3746-1.383-0.8856-2.537-1.477-3.56-0.0625 0.2079-0.0721 0.3025-0.3249 0.901-0.6796 0.7278-0.0618-0.51 0.2658-1.004-0.5831-0.9842-1.235-1.854-2.023-2.496-0.4319-0.3516-0.8948-0.6329-1.366-0.8934-0.0132 0.3214-1.598 0.6265-2.962 1.792 0.7663 0.2004-3.672 1.595-2.99 1.059 2.241-1.829 4.888-3.118 5.679-3.028-1.196-0.6038-2.516-0.9221-3.958-0.9452zm22.35 0.1626c0.0362 0.1172-1.558 1.121-0.7311 0.2798 0.5241-0.2571 0.719-0.3214 0.7311-0.2798zm-23.42 0.155c0.0816-0.0378 0.138 0 0.1772 0.03781 0.2614 0.3516-0.3887 2.291-1.543 1.927 0.6766-1.331 1.121-1.868 1.366-1.964zm-29.26 0.03781c0.3378 0.07562 0.1057 0.9153-1.13 1.019 0.5196-0.8318 0.9272-1.064 1.13-1.019zm0.037 0.9747c0.1465 0.08318-0.0698 0.8666-0.2806 0.2306 0.1433-0.2079 0.2318-0.2571 0.2806-0.2306zm32.01 0.9936s0.8354 0.1853 1.265-0.4424c-0.0703-0.2117-1.265 0.4424-1.265 0.4424zm-32.93 0.3478c0.0715 0.1475-0.0847 0.87-0.1625 0.1172 0.0839-0.155 0.1386-0.1664 0.1625-0.1172zm46.49 0c0.2885-0.04915 0.3182 0.7025-0.6424 1.189 0.2055-0.8405 0.4694-1.159 0.6424-1.189zm-10.3 0.4208c0.6983-0.2533 2.272 1.627-0.2215 1.13-0.1439-0.7267-0.0113-1.045 0.2215-1.13zm-6.173 1.226c1.12-0.189 2.135 0.06806 3.057 0.7679 0.9197 0.6885 1.539 1.822 1.846 3.404l-1.263 0.2155c-0.2088 0.5467-0.4728 1.187-0.9452 2.149 0.019-0.7694 0.1998-1.46 0.4136-2.06l-4.18 0.7089c0.1978-0.121 0.528 0.3252 0.8566 0.8193l0.6351-0.4208c0.7251 2.785 0.0614 1.47-0.6351 0.4208l-0.0739 0.04537-0.9674-0.2344c0.0102-0.3478 0.0622-0.5327 0.1403-0.6204l-2.186 0.3705c-0.2657-1.495-0.0801-2.747 0.5538-3.751 0.634-1.005 1.549-1.608 2.747-1.809zm-25.86 0.1475c0.525 0.1777-0.1945 1.504-3.729 3.449 1.435-2.652 3.204-3.625 3.729-3.449zm44.38 0.2344c0.1026 0.1399-0.8434 1.303-0.5391 0.3176 0.3514-0.2987 0.5049-0.363 0.5391-0.3176zm-11.97 0c0.4054 0.0567 0.665 2.567-0.5908 3.434 0.0509-2.615 0.3475-3.467 0.5908-3.434zm-7.133 0.2155c0.0623-0.09453-0.0362 0.0567-0.48 0.7456 0.1948-0.3138 0.4177-0.653 0.48-0.7456zm20.6 0.2306c0.4029 0.07183 0.6724 0.8329 0.096 2.836-1.817-1.159-0.7674-2.955-0.096-2.836zm-54.55 0.9747c-0.2822-0.0378-0.5609 0.03781-0.8418 0.03781 0.4047 0.5161-0.0962 3.485-1.565 2.666 0.531-1.605 0.9406-2.385 1.226-2.658-0.2337 0-0.4687 0-0.7015 0.0378-0.8853 0.1512-1.639 0.5021-2.267 1.063-0.6153 0.5592-1.246 1.606-1.883 3.146l-0.4948-2.946-1.521 0.2571c2e-3 1.252-0.2951 3.327-0.9304 2.651 0.1772-1.242 0.3238-2.012 0.4504-2.57l-3.094 0.5244 3.028 17.92c0.0399-0.08318 0.0586-0.2042 0.1329-0.2231 0.354-0.07939 0.868 0.448-0.1108 0.3705l0.2806 1.654c3e-3 -0.0034-3e-3 -0.0378 0-0.0378 0.1678-0.1815 0.5368 0.5925 0.1034 0.6647l0.0665 0.3781 5.487-0.9233-1.078-6.41c-0.1963-1.163-0.2942-1.996-0.4135-2.902-0.1891 0.2571-0.4174 0.5403-0.7311 0.8496 0.0973-0.963 0.331-1.581 0.576-1.95-0.1492-1.336-0.2239-2.396-0.1625-3.028 0.1257-1.159 0.4227-1.989 0.8862-2.496 0.4613-0.5206 1.078-0.8462 1.846-0.9747 0.7942-0.1323 1.699 0.0378 2.725 0.465l0.8935-5.073c-0.1534-0.06048-0.3048-0.06806-0.4578-0.1172 0.0174 0.1437-0.1651 0.4-0.8344 0.7603-0.0707-0.5478 0.2654-0.7758 0.5391-0.8344-0.3838-0.1059-0.7705-0.2458-1.152-0.2873zm31.1 0.8639c0.304 0.05293-0.1922 0.9891-1.425 1.211 0.7724-0.9535 1.243-1.242 1.425-1.211zm-33.64 0.242c0.2227 0.0794 0.1131 0.8617-0.3323 0.2344 0.1485-0.2079 0.2581-0.2609 0.3323-0.2344zm16.95 1.115c0.4441 0.06048 0.7766 1.041-0.4283 0.3403 0.1201-0.2798 0.2803-0.3592 0.4283-0.3403zm-5.723 0.31c0.4095 0.09453 0.3231 1.396-1.093 1.625 0.4237-1.304 0.8472-1.681 1.093-1.625zm42.31 0.2722c0.0715 0.1475-0.0774 0.87-0.1551 0.1172 0.0839-0.155 0.1312-0.1664 0.1551-0.1172zm-20.14 0.08319c0.2849 0.1815-0.0658 4.879-0.5169 1.78 0.2558-1.398 0.422-1.841 0.5169-1.78zm-26.37 0.3743c0.0763 0.0983 0.0418 1.081-0.1108 0.2949 0.0509-0.2609 0.0854-0.3289 0.1108-0.2949zm-25.67 0.155c-0.8444 0-1.846 0.121-2.924 0.2873 0.3224 1.397 0.2183 2.786-1.182 2.444-0.1863-1.031-0.1872-1.496-0.2584-2.171-2.105 0.4805-3.701 1.214-4.726 2.23-1.204 1.194-1.92 2.841-2.142 4.94h0.3766c0.3333-0.5584 0.6304-0.9429 0.8566-1.063 0.4927-0.2609 0.647 0.3743 0.5538 1.078h1.743c-0.0483 0.0378-0.1264-0.03781-0.2363-0.2722 0.039-0.6117 0.1012-0.8307 0.1551-0.842 0.1202-0.03781 0.221 0.9981 0.0813 1.115l1.602 0.03781c0.1759-1.02 0.5064-1.768 0.9895-2.238 0.4809-0.4839 1.209-0.8038 2.186-0.9675 1.445-0.2458 2.467-0.1853 3.065 0.1853 0.5955 0.3554 0.9814 1.058 1.159 2.112l0.096 0.5467c-0.5579 0.3554-1.509 0.794-2.644 1.27-2e-3 0.1059-0.0442 0.1361-0.1477 0.06048-0.704 0.2911-1.401 0.5853-2.319 0.9233-1.839 0.6855-3.225 1.357-4.157 2.023-0.9212 0.6511-1.583 1.485-1.986 2.503-0.2657 0.6582-0.3473 1.368-0.3544 2.097 0.1097-0.121 0.2133-0.2117 0.2732-0.1928 0.209 0.07183 0.1068 0.7271-0.2732 0.2949 2e-3 0.3516-0.0182 0.7013 0.0444 1.071 0.2774 1.644 1.061 2.916 2.304 3.855 0.0374-0.04915 0.0772-0.1437 0.1108-0.1323 0.0845 0.0378 0.135 0.2079 0.1329 0.3327 0.0118 0 0.0178 0.03781 0.0295 0.03781 1.105 0.7331 2.427 1.066 3.951 1.019 0.4145-1.977 2.383-3.877 2.717-3.581 0.1977 0.1739-0.4384 1.378-2.053 3.522 0.2466-0.0378 0.4817-0.0378 0.7384-0.07184 1.211-0.2042 2.31-0.6269 3.301-1.263 0.9907-0.6356 1.875-1.493 2.658-2.562 0.0566 0.0983 0.164 0.3025 0.3101 0.6129 0.3292 0.6809 0.5928 1.196 0.7975 1.536l5.427-0.9157c-0.6488-0.9082-1.135-1.778-1.462-2.607-0.3165-0.8439-0.6302-2.18-0.9378-4.002l-1.019-6.417c-0.4021-2.383-0.9287-3.968-1.573-4.77-0.328-0.4231-0.75-0.7894-1.255-1.093-0.1471 0.3781-0.3492 0.8155-0.8049 1.425 0.0628-0.7376 0.2186-1.224 0.3766-1.602-0.3771-0.189-0.7427-0.3849-1.204-0.5168-0.6483-0.1928-1.442-0.2798-2.378-0.2722zm16.68 0.0378c2.742-0.0378-2.166 0.808 0 0zm11.44 0.1928c0.243-0.0567 0.3318 0.6995-0.2732 0.3989 0.096-0.2722 0.1922-0.3792 0.2732-0.3989zm-17.68 0.5686c0.2932 0.07562 0.2936 0.876-0.3766 0.2495 0.149-0.2155 0.2789-0.276 0.3766-0.2495zm20.59 0.03781c0.1465 0.08318-0.0699 0.8662-0.2806 0.2306 0.1433-0.2079 0.2318-0.2571 0.2806-0.2306zm-15.8 0.2949c0.3262 0.05671 0.4748 0.3924-0.1772 1.211-1.398-0.6121-0.3664-1.305 0.1772-1.211zm14.7 0.1096c0.139-0.1021 0.9221 0.5637 0.1551 0.4136-0.179-0.2647-0.2014-0.38-0.1551-0.4136zm7.252 0c0.4336 0.2458-0.0167 2.037-1.669 1.965 0.834-1.699 1.409-2.112 1.669-1.965zm-8.588 0.03781c0.5433-0.03781 1.795 1.303-0.1625 0.6204-0.1214-0.442-0.0186-0.6083 0.1625-0.6204zm21.28 0.7384c0.2958-0.09075 0.7539 0.87-0.1846 0.532 5e-3 -0.3516 0.086-0.501 0.1846-0.532zm-20.04 0.08317c0.5404-0.2193 0.9464 2.633-0.5243 1.507 0.1436-1.018 0.3442-1.433 0.5243-1.507zm46.27 0.0605c0.5251-0.3062-0.7742 4.664-1.233 2.525 0.6786-1.732 1.058-2.423 1.233-2.525zm-59.35 0.5021c0.2191-0.04537-0.4448 1.22-1.462 1.912 0.881-1.386 1.331-1.884 1.462-1.912zm-20.53 0.6866c0.1423 0.1399-0.1776 1.15-0.3175 0.2495 0.1753-0.2458 0.2701-0.2987 0.3175-0.2495zm-3.035 0.03781c0.4536 0.2079 0.8202 2.186-0.5538 2.319-0.0212-1.932 0.2817-2.444 0.5538-2.319zm55.93 0c1.341-0.2571-0.5998 0.8726 0 0zm-70.03 0c-0.1488 0.1966-0.3293 0.3743-0.5243 0.3913 0.189-0.3138 0.1752-0.2079 0.2954-0.3781-0.6039-0.03781-1.23-3.77e-4 -1.905 0.1021-0.0568 0-0.1062 0.0378-0.1625 0.04537-0.0262 0.1928-0.1769 0.276-0.4578 0.1323-0.9457 0.242-1.834 0.6182-2.621 1.211-0.9623 0.7248-1.801 1.723-2.526 2.983-0.8118-1.001-1.752-1.693-2.821-2.075-1.069-0.3822-2.268-0.4624-3.596-0.2344-2.121 0.3592-3.834 1.51-5.191 3.367 0.1611 0.3592 0.0707 0.7195-0.4431 0.6276-0.087 0.1399-0.1898 0.2458-0.2732 0.3913l-0.0886-0.5021c-0.0807-0.03781-0.105 0-0.1994-0.06806 0.0395-0.1512 0.0872-0.2193 0.133-0.3252l-0.3249-1.935-1.226 0.2079c-0.1594 0.6991-0.6765 1.625-1.913 2.592 0.0832-1.028 0.256-1.77 0.4578-2.348l-2.378 0.3989 2.518 14.92h5.642l-0.8714-5.184c-0.3362-1.992-0.4368-3.442-0.2954-4.349 0.1544-0.91 0.5371-1.653 1.137-2.223 0.6001-0.5702 1.317-0.9206 2.164-1.064 0.703-0.1172 1.283-0.07183 1.735 0.1475 0.3296 0.1512 0.5984 0.4235 0.8419 0.746 0.4872-0.6964 0.9396-1.124 1.004-0.9452 0.0468 0.1285-0.1918 0.6635-0.6646 1.492 0.2816 0.5951 0.5849 1.799 0.9083 3.714l1.248 7.399c0.2297-0.7766 0.5567-1.31 0.7901-1.425 0.2961-0.1475 0.3943 0.3667-0.1329 1.691h5.029l-0.384-2.297c-0.1497 0.0983-0.2434 0.2079-0.4061 0.3025 0.1454-0.2571 0.2259-0.3289 0.3618-0.5539l-0.7827-4.637c-0.3296-1.953-0.4137-3.401-0.2658-4.349 0.1456-0.9622 0.5171-1.736 1.115-2.319 0.5979-0.583 1.277-0.9411 2.046-1.071 1.055-0.1777 1.901 0.0794 2.54 0.7755 0.4787 0.535 0.8934 1.834 1.241 3.892l1.049 6.203c0.7254 0.8775 1.578 1.998 2.097 2.902-0.4509-0.541-0.4785-0.5936-0.827-1.019 0.2379 0.2155 0.2943 1.503-0.3471 0.5097 0.1085-0.4439 0.22-0.5728 0.3101-0.5611-0.7284-0.89-0.7466-0.963-1.174-1.507l0.6277 3.729h1.558c-0.0496-0.03781-0.0921-0.04537-0.1551-0.1323 0.1485-0.2079 0.2581-0.2533 0.3323-0.2306 0.1072 0.0378 0.1284 0.2344 0.0813 0.363h3.825l-0.5834-3.449c-0.2808 0.07184-0.4756 0.155-0.8714 0.2079 0.1395-0.5894 0.4062-0.9603 0.7089-1.189l-0.3471-2.053c-0.1887 0-0.4276-0.06427-0.827-0.2344 0.1238-0.3592 0.342-0.4715 0.5538-0.4579 0.0614 0 0.1109 0.05293 0.1698 0.07183l-0.1182-0.6719c-0.2858-0.1134-0.6409-0.2495-0.6499-0.2647-0.014-0.03781 0.344 0.09075 0.6351 0.1853l-0.7975-4.733c-0.334-1.979-0.7653-3.38-1.292-4.202-0.723-1.11-1.663-1.878-2.821-2.312-0.1576-0.06048-0.3453-0.06427-0.5096-0.1096-0.1431 0.6824-0.5731 1.789-1.58 3.39 0.2539-1.764 0.6504-2.878 0.9969-3.515-0.264-0.04915-0.5028-0.1512-0.7827-0.1701-5e-3 -3.78e-4 -0.0103 3.78e-4 -0.0148 0zm20.01 0.1701c0.1067 0.1248-1.18 1.165-0.6867 0.2873 0.4635-0.2684 0.6512-0.3289 0.6867-0.2873zm1.403 0.1021c0.1006 0.121-0.2877 1.013-0.7901 0.9747 0.4934-0.8443 0.7298-1.048 0.7901-0.9747zm-42.02 3.434s-2.784 0.4794 0 0zm77-2.761c0.1672 0.04537 0.1874 1.279-0.2068 0.4726 0.0782-0.3705 0.151-0.4874 0.2068-0.4726zm-22.08 0.09453c0.3379 0 0.2124 0.5936-1.381 1.89 0.2415-1.229 1.043-1.873 1.381-1.89zm35.46 0.4949c0.2653 0.08318-0.0109 0.8745-0.4578 0.2306 0.2234-0.2079 0.3694-0.2571 0.4578-0.2306zm-16.06 0.08696c0.1605-0.1323 0.4377 0.6325-0.0886 0.5021-7e-3 -0.31 0.0352-0.4575 0.0886-0.5021zm32.96 0.1172c0.1465 0.08318-0.0698 0.8738-0.2806 0.2344 0.1433-0.2079 0.2318-0.2647 0.2806-0.2344zm-12.92 0.3554c0.3268-0.2079 0.456 1.244-0.3618 0.8934 0.1267-0.5675 0.2529-0.8235 0.3618-0.8934zm27.99 0.746c0.3531-0.242 1.33 0.8462-0.037 0.7751-0.1317-0.4677-0.0808-0.6949 0.037-0.7751zm-97.04 0.2079c0.2213 0.1248 0.045 0.6722-0.3618 0.07562 0.1674-0.1096 0.2881-0.1172 0.3618-0.07562zm-1.189 0.0794c0.2227 0.0794 0.1131 0.8617-0.3323 0.2344 0.1485-0.2079 0.2581-0.2609 0.3323-0.2344zm96.13 0.242c0.2653 0.08318-0.0186 0.8745-0.4652 0.2306 0.2234-0.2079 0.3768-0.2571 0.4652-0.2306zm-74.44 0.0378c0.5015-0.2306 0.5985 0.4613-1.218 2.762-0.1889-1.38 0.717-2.532 1.218-2.762zm-20.57 0.05293c0.1686-0.03781 0.09 0.5724-0.7532 1.949 0.1687-1.223 0.5846-1.911 0.7532-1.949zm81.7 0.1323c0.0715 0.1475-0.0774 0.8768-0.1551 0.1248 0.0839-0.155 0.1312-0.1739 0.1551-0.1248zm-26.94 0.5758c0.0558-0.03781 0.1154 0 0.1698 0.03781 0.363 0.2873 0.604 1.909-0.5169 1.625 0.0276-1.117 0.1796-1.571 0.3471-1.654zm13.34 0.155c0.1465 0.08317-0.0771 0.8666-0.288 0.2306 0.1433-0.2079 0.2391-0.2571 0.288-0.2306zm-22.52 0.2004c0.4622-0.2382 0.9904 1.56-0.3692 1.078 0.0664-0.6915 0.2152-0.9985 0.3692-1.078zm-65.93 0.2344c0.2658 0 0.1347 0.9913-0.3988 0.4132 0.1762-0.31 0.3102-0.4159 0.3988-0.4132zm36.97 0c0.1669 0.05671-0.3749 0.4095-0.4504 0.07184 0.2547-0.08319 0.3948-0.09453 0.4504-0.07184zm0.9304 0c0.1669 0.05671-0.3749 0.4095-0.4504 0.07184 0.2547-0.08319 0.3948-0.09453 0.4504-0.07184zm30.5 0.5981c1.41-0.03781 2.133 1.177-2.311 1.787 0.3702-1.306 1.465-1.769 2.311-1.787zm-49.87 4.753c0.2366-0.2231 1.2-0.1815-0.9764 1.907 1.23-1.192 0.7399-1.684 0.9764-1.907zm50.1-4.666c-0.1995 0.121-0.7405 1.337 0.0223 0.363 0.0691-0.3252 0.0445-0.4027-0.0223-0.363zm23.75 0.1701c0.2991-0.121 0.9845 0.5539-0.0886 0.4431-0.0644-0.276-0.0109-0.403 0.0886-0.4431zm6.639 0.3554c0.1706-0.08696 0.3589 1.383-0.1403 0.7384 0.0261-0.5104 0.0834-0.71 0.1403-0.7384zm-102.6 0.1777c0.731-0.08696 0.0145 1.323-1.248 0.7165 0.5981-0.4896 1.004-0.6877 1.248-0.7165zm-0.6056 0.9898c0.4293 0.1928 0.8632 2.156-0.3988 2.341-0.1168-1.932 0.1412-2.456 0.3988-2.341zm82.99 0.1323c0.0715 0.1475-0.0847 0.87-0.1625 0.1172 0.0839-0.155 0.1386-0.1664 0.1625-0.1172zm-40.21 0.3478 0.1846 1.093c0.222 1.315 0.3004 2.224 0.2363 2.717-4e-3 0.0378-0.0178 0.05671-0.0223 0.09074 0.1253-0.07183 0.2789-0.1815 0.3175-0.155 0.1486 0.1021-0.2313 0.6896-0.4061 0.4579-0.0336 0.1361-0.0667 0.2722-0.1182 0.4064 0.8486-0.853 1.53-1.334 1.831-1.359 0.5739-0.04537-0.2243 1.471-3.803 4.815l-0.7311 0.5467 0.1255-0.7535c0.3398-0.5282 0.6772-0.9618 1.012-1.403-0.583 0.4125-1.191 0.7354-1.868 0.8496-0.8853 0.1475-1.666 0-2.334-0.4726-0.6673-0.4632-1.067-1.078-1.196-1.846-0.1318-0.7815 0.1155-1.491 0.7458-2.12 0.416-0.3913 1.36-0.8794 2.828-1.462 1.468-0.583 2.534-1.051 3.197-1.403zm-44.5 0.3705c0.4909-0.5108-1.259 5.867-1.381 3.39 0.8047-2.284 1.217-3.219 1.381-3.39zm12.63 0.5539c0.1465 0.08318-0.0697 0.8658-0.2806 0.2306 0.1433-0.2079 0.2318-0.2571 0.2806-0.2306zm-15.16 0.2344c0.2653 0.08317-0.0186 0.8745-0.4652 0.2306 0.2234-0.2079 0.3768-0.2571 0.4652-0.2306zm86.81 0.07561c0.241 0.1096 0.5041 0.5414-0.1034 0.6352-0.1442-0.3478-0.1533-0.5346-0.096-0.6129 0.043-0.0605 0.1191-0.0605 0.1994-0.0378zm-10.23 0c0.0829-0.1172 0.6092 0.3478 0.1182 0.3478-0.1253-0.2042-0.1458-0.31-0.1182-0.3478zm-39.07 0c0.2466-0.09453 0.5212 0.8223-0.1994 0.5168 0.0381-0.3403 0.1172-0.4847 0.1994-0.5168zm53.85 0.2155c0.0796 0.4295 0.0348 1.027-0.1551 1.654l1.337-0.2306zm-76.64 1.026c0.1648 0.03781 0.1882 0.4949-0.3028 1.691-0.6421-0.6737 0.028-1.757 0.3028-1.691zm2.924 0.1096c0.2227 0.07939 0.1131 0.862-0.3323 0.2344 0.1485-0.2079 0.2581-0.2609 0.3323-0.2344zm56.32 0.2155c0.1465 0.08319-0.0698 0.8662-0.2806 0.2306 0.1433-0.2079 0.2318-0.2571 0.2806-0.2306zm-45.36 0.3025c0.3252-0.2722 0.864 1.979-0.1846 1.315-5e-3 -0.8541 0.0762-1.223 0.1846-1.315zm-27.71 1.521c0.1739 0.07561 0.2306 0.8647-0.1994 0.242 0.0703-0.2117 0.1414-0.2684 0.1994-0.242zm4.084 0.6499c0.2343-3.78e-4 0.4349 1.61-0.2141 0.6938 0.056-0.5089 0.136-0.6938 0.2141-0.6938zm-4.357 0.155c0.2265 0.07183 0.2657 1.43-0.2732 0.4874 0.1033-0.3947 0.1978-0.5115 0.2732-0.4874zm29.4 0c0.0924 0.1701-1.095 0.7066-0.6277 0 0.4239-0.08318 0.5968-0.06427 0.6277 0zm-15.84 0.2004c0.2543 0.1701 0.1005 1.413-0.8197 1.366 0.3659-1.183 0.6671-1.468 0.8197-1.366zm37.53 1.248c0.373-0.03781 0.6097 0.8299-0.5464 1.314 0.0489-0.9463 0.3226-1.293 0.5464-1.314zm2.267 0c0.2274-0.03781 0.3248 1.444-0.2511 0.6866 0.0842-0.49 0.1753-0.6737 0.2511-0.6866zm-13.03 0.7679c0.6055 0 1.182 2.534-0.5317 1.071 0.1242-0.8 0.3299-1.073 0.5317-1.071zm-3.36 0.2647c0.45 0.03781 1.164 0.7989-0.0517 1.064-0.3938-0.8152-0.2183-1.075 0.0517-1.064zm13.67 0.842c0.2223-0.06427 0.6414 0.5569-0.1034 0.3478-0.0186-0.2269 0.0291-0.3252 0.1034-0.3478zm-6.683 0.06049c0.2535 0 0.2151 0.3875-0.7459 1.47-0.9065-0.4643 0.3233-1.481 0.7459-1.47zm-13.88 0.3478c0.3157 0.2231 0.5359 2.219-0.4209 1.721 0.0428-1.07 0.1587-1.557 0.2806-1.698 0.0458-0.05293 0.0952-0.05293 0.1403-0.03781zm-28.65 0.04537c0.1095 0.121-0.2793 2.083-0.3102 0.687 0.1776-0.5599 0.2736-0.7274 0.3102-0.687zm15.71 1.484c0.3463-0.04537 0.886 0.8068-0.2141 0.4208 5e-3 -0.2949 0.0988-0.4057 0.2141-0.4208zm20.73-4.818c1.363 0.6272-1.939 0.6314-3.097 2.543 0.6711-1.115 2.976-2.344 3.097-2.543zm19.34-5.618c0.1993-0.1059 1.775-0.3214 0 0 0.9083-0.5826 0.0765 1.485 0 0zm4.373 4.416c0.1923-0.2873 0.6251 0.2647-0.524 1.684 0.38-0.2722 0.3317-1.397 0.524-1.684zm-1.211-1.839c0.333-0.5607-1.249 0.8272-2.568 1.092 0.5379-0.5743 2.235-0.5316 2.568-1.092zm-44.56 3.71c-1.162-0.1172-1.906-0.1777 1.263 0.1777 1.478 0.1248-0.101-0.05671-1.263-0.1777z" style="fill:#ee4023"/>
</svg>
