<svg id="SVGRoot" version="1.1" viewBox="0 0 222 61" xmlns="http://www.w3.org/2000/svg" width="259" height="73"> 
  <path d="m39.38 0.99999c2.4265 0 4.6642 0.39051 6.713 1.1719 2.0633 0.76684 3.8432 1.8533 5.3399 3.2593 1.4966 1.3922 2.6663 3.0681 3.509 5.0283 0.84275 1.9602 1.2641 4.1262 1.2641 6.498 0 1.3493-0.15983 2.6772-0.4795 3.984-0.31967 1.3064-0.7919 2.5423-1.4167 3.7069-0.61027 1.1646-1.3658 2.2442-2.2667 3.2383-0.90087 0.97991-1.9325 1.8322-3.0949 2.5569-1.1479 0.71012-2.4193 1.2639-3.8142 1.6617-1.3949 0.41196-2.8988 0.61776-4.5116 0.61776-2.4265 0-4.6715-0.37633-6.7348-1.129-2.0488-0.76684-3.8214-1.8464-5.3181-3.2386-1.4966-1.3919-2.6663-3.0608-3.509-5.0065-0.84275-1.9602-1.2641-4.1331-1.2641-6.5194 0-1.3493 0.15983-2.6772 0.4795-3.984 0.31967-1.3068 0.78463-2.5496 1.3949-3.7284 0.6248-1.1788 1.3804-2.2583 2.2667-3.2383 0.90087-0.99446 1.9253-1.8537 3.0731-2.5779 1.1624-0.7243 2.4411-1.2853 3.836-1.6831 1.4094-0.41196 2.9206-0.61776 4.5334-0.61776zm1.2423 29.806c1.6129 0 2.9904-0.28361 4.3272-0.85229 1.3368-0.56831 2.436-1.3919 3.395-2.4714 0.97352-1.0795 1.7291-2.3932 2.2667-3.9415 0.53762-1.5624 0.81793-3.3353 0.95228-5.305 0.14586-2.1384 0.32188-4.2113-0.20121-6.0718-0.50856-1.8747-1.2714-3.4939-2.2885-4.8574-1.0171-1.3777-2.2885-2.4503-3.8142-3.2172-1.5111-0.78138-3.86-1.1719-5.8797-1.1719-1.6129 0-3.2335 0.28361-4.5703 0.85229-1.3368 0.55377-2.4919 1.3635-3.4655 2.4289-0.959 1.065-1.7073 2.3718-2.2449 3.92-0.53762 1.5482-1.1954 3.3095-1.1954 5.2835 0 2.1733 0.05981 4.2044 0.56836 6.0933 0.50856 1.8751 1.2714 3.5011 2.2885 4.8788 1.0171 1.3777 2.483 2.4645 4.0087 3.2597 1.5257 0.78138 3.8332 1.1719 5.8529 1.1719z" style="fill:#000000;font-feature-settings:normal;font-variant-caps:normal;font-variant-ligatures:normal;font-variant-numeric:normal"/>
  <path d="m66.302 3.4409c-0.02953 1.5908-0.04583 3.1321-0.07535 4.6232-0.01476 0.63922-0.02953 1.2926-0.04429 1.9602 0 0.66758-0.0074 1.3279-0.02214 1.9813 0 0.63922-0.0074 1.257-0.02214 1.8537v1.5551c0 0.95155 0.0074 2.102 0.02214 3.4513 0.01476 1.3493 0.02952 2.7343 0.04429 4.1545 0.02952 1.4202 0.06644 2.6867 0.11073 3.9935 0.04429 1.3068 0.03411 2.3932 0.09317 3.2597 0.20669 0.03636 1.1605 0.06545 1.5 0.10544 0.35433 0.03636 0.72342 0.05818 1.1073 0.08363 0.38386 0.03636 0.76033 0.04 1.1294 0.04363 0.36909 0.03636 0.67913 0.03636 0.93011 0.03636 1.0335 0 2.0891-0.06545 3.1668-0.19271 1.0925-0.14181 2.1407-0.39887 3.1447-0.7672 1.0187-0.36906 1.9709-0.87338 2.8568-1.5126 0.90058-0.6534 1.691-1.486 2.3474-2.514 1.7254-2.7016 2.3679-5.9296 2.4836-8.561 0.20165-4.5865-0.48869-7.3353-2.7687-10.239-0.96764-1.2326-2.3581-2.0362-3.9197-2.6416-1.5536-0.60213-4.1145-0.91628-6.1371-0.91628-0.39862 0-0.84891 0-1.3509 0.043633-0.50196 0.03636-1.0039 0.047268-1.5059 0.065449-0.4872 0.03636-0.95226 0.054541-1.3952 0.087265-0.42814 0.03636-1.4013 0.050905-1.6818 0.061813zm-4.2178-1.9173c0.33956 0.03636 0.65698 0.039996 0.95225 0.043632 0.25098 0.03636 0.50934 0.039996 0.77509 0.043632h0.64222c0.28051 0 0.74556 0 1.3952-0.043632 0.66436-0.03636 1.4173-0.058177 2.2588-0.083629 0.84153-0.03636 1.7126-0.058177 2.6132-0.087265 0.91535-0.03636 1.7716-0.043632 2.5689-0.043632 2.1407 0 4.5184 0.25452 6.4525 0.76684 1.934 0.51159 3.6319 1.3497 5.0935 2.5143s2.2802 2.6914 3.1365 4.5803 1.2844 4.2113 1.2844 6.9666c0 1.9744-0.22882 3.7498-0.6865 5.3264-0.44291 1.5766-1.0704 2.8714-1.8824 4.0785-0.812 1.2075-1.7864 2.2442-2.9232 3.1106-1.122 0.85192-2.3696 1.5551-3.7426 2.1093-1.3583 0.55377-2.8125 0.95846-4.3627 1.2141-1.5502 0.25452-3.152 0.3836-4.8056 0.3836-0.59054 0-1.3066-0.03636-2.1481-0.06545-0.82676-0.03636-1.6609-0.06545-2.5024-0.10544-0.84153-0.04-1.6388-0.08363-2.3917-0.12726-0.73818-0.03636-1.314-0.04363-1.7273-0.04363v-0.08726c0.08858-0.29816 0.16978-0.66758 0.2436-1.1079 0.08858-0.44032 0.1624-0.98682 0.22146-1.6402 0.05905-0.6534 0.10334-1.4275 0.13287-2.3223 0.02952-0.90901 0.04429-1.87 0.04429-3.0772v-13.87c0-1.2072-0.01476-2.2653-0.04429-3.1743-0.029525-0.92319-0.073819-1.7115-0.13287-2.3649-0.059053-0.66758-0.13287-1.2286-0.22146-1.6831-0.073818-0.4545-0.15502-0.83083-0.2436-1.1294z" style="fill:#000000;font-feature-settings:normal;font-variant-caps:normal;font-variant-ligatures:normal;font-variant-numeric:normal"/>
  <path d="m19.984 9.6602c0 2.3499-0.73464 4.5562-2.9242 6.0935-2.1544 1.5127-4.1566 2.2344-7.8842 2.1886h-4.6064v14.362h-3.5696v-30.593h9.6548c6.4941-0.065468 9.2813 3.1663 9.3296 7.9486zm-15.415 6.6608h4.745c1.448 0 2.9021-0.46367 3.9249-1.0074 2.4667-1.3105 2.8247-3.35 2.7926-5.4573-0.078357-5.1462-1.9795-5.864-4.638-6.6215-1.1658-0.33119-4.9847-0.092425-6.8246 0.10013z" style="fill:#000000;font-feature-settings:normal;font-variant-caps:normal;font-variant-ligatures:normal;font-variant-numeric:normal"/>
  <path d="m100.42 1.7116v30.593h-4.2516v-30.593z" style="fill:#000000;font-feature-settings:normal;font-variant-caps:normal;font-variant-ligatures:normal;font-variant-numeric:normal"/>
  <path d="m133.23 1.7116v18.762c0 2.8652-0.33492 5.0218-1.0048 6.4698-0.30142 0.64698-0.78709 1.3864-1.457 2.2182-0.63638 0.80102-1.39 1.448-2.2608 1.9409-2.2106 1.1707-4.9738 1.7561-8.2896 1.7561-8.3064 0-12.46-3.9281-12.46-11.784v-19.363h5.0252v19.733c0 0.89344 0.11608 1.6174 0.14958 2.172s0.20099 1.3402 0.5024 2.3568c0.33493 1.0167 0.77035 1.8331 1.3062 2.4493 0.56939 0.61617 1.4402 1.1707 2.6125 1.6637 1.2058 0.49293 2.6292 0.7394 4.2704 0.7394 6.2633 0 9.3949-3.0808 9.3949-9.2425v-19.871z" style="fill:#000000;font-feature-settings:normal;font-variant-caps:normal;font-variant-ligatures:normal;font-variant-numeric:normal"/>
  <path d="m157.42 24.9 12.448-23.437h1.1379l4.01 30.841-3.9191 0.28113-2.6539-23.348h-0.18485l-11.795 23.067h-0.10067l-11.166-23.494h-0.18485l-2.241 23.915-2.9273-0.4213 4.2462-30.841 1.035 0.050064z" style="fill:#000000;font-feature-settings:normal;font-variant-caps:normal;font-variant-ligatures:normal;font-variant-numeric:normal"/>
  <path d="m212.86 11.185-5.0846 4.182 0.0451 0.27832c0.11356-0.1272 0.20333-0.17299 0.2482-0.17299 0.13975 0.05592-0.0196 0.61327-0.24069 0.21061l0.63182 3.8887-2.5649 0.41369 0.43625 2.6551c0.0615-0.04167 0.16505-0.13999 0.1805-0.11284 0.0354 0.06216-0.0567 0.25686-0.13541 0.40617l0.2482 1.5118 2.5649-0.41369 1.5043 9.2139c0.32237 1.9779 0.59449 3.2804 0.81985 3.9112 0.0335 0.10136 0.0771 0.17457 0.11284 0.27077 1.1373-1.0061 1.6382-1.3964 1.6698-1.3689 0.23507-0.61383 0.422-0.88755 0.54155-0.88755 0.38717 0.01271 0.0964 2.6317-1.3313 3.6931 0.30154-1.3384 0.561-2.2104 0.78225-2.7905-0.0502 0.13733-1.0464 1.0724-1.6548 1.3614 0.27812 0.7459 0.60911 1.3632 1.0154 1.7901 0.47145 0.46803 1.1423 0.80984 2.0083 1.0229 0.8638 0.20025 1.7968 0.21697 2.8056 0.05264 1.6459-0.2683 3.0774-0.78752 4.2873-1.557l-1.1884-4.2647c-0.92381 0.51809-1.6485 0.81787-2.1662 0.90259-0.37167 0.05904-0.70474 0.0208-1.0004-0.12034-0.28255-0.14453-0.48424-0.35106-0.60925-0.61677-0.11399-0.2814-0.31297-1.2834-0.59421-3.0086l-0.53403-3.2945c-0.0531-0.03697-0.13074-0.13274-0.19555-0.2031-0.025-0.0036-0.0449-0.0062-0.0752-0.01502 3e-3 -0.02388 0.0112-0.03081 0.015-0.05264-0.0402-0.04795-0.0683-0.05935-0.11283-0.12034 0.0418-0.43263 0.0956-0.69295 0.15042-0.91763l-0.63174-3.9187 3.821-0.62429-0.72959-4.4603-3.821 0.62429zm-1.8353 4.8213c0.73204 5e-3 0.52682 0.25109-2.8131 0.72207 0.41186-0.49024 2.0811-0.72207 2.8131-0.72207zm0.44378 0.82737c0.59519-0.03119 1.0236 0.17792-0.4889 0.72207-0.86827-0.419-0.10633-0.68356 0.4889-0.72207zm-44.144 1.1809-5.5961 0.91763 2.2038 13.501c0.15589-0.08965 0.29368-0.15042 0.33846-0.15042 0.13132 0.0506-0.13213 0.42158-0.30839 0.36104l0.72207 4.3926c0.11746-0.12169 0.32576-0.42634 0.39865-0.46634 0.39127-0.21701 0.1485 0.58204-0.3159 1.0004l1.7224 10.545 5.596-0.91011-1.1057-6.7694 2.1662-3.1515 1.3464 1.6924c0.0297 0.0033 0.0551-0.0104 0.0903 0.0077 0.24735 0.12643 0.57849 0.58008 0.67694 0.95524l4.4302 5.581c0.63697-0.81869 1.6237-1.5672 1.903-1.5269 0.19825 0.02811-0.26453 0.6761-1.2411 1.7375 0.0515 0.02811 0.0994 0.06489 0.15043 0.09778l5.4456-0.88002c0.0173-0.01309 0.0435-0.04001 0.0602-0.05264l-1.2035-1.4742c0.0558 0.24751-0.14445 0.60842-0.5942 0.09027 0.19983-0.22336 0.35118-0.30177 0.45129-0.26326l-8.552-10.478 5.9646-8.898-6.8898 1.1207-1.4592 2.3317c0.0185 0.03581 0.0212 0.06504-0.0526 0.07521l-0.54908 0.88755c0.096-0.06651 0.2606-0.23965 0.3159-0.25575 0.35268-0.06192-0.0685 0.82191-0.57164 0.6619l-3.0162 4.8138-1.384-8.4843c-5e-3 -0.0096-0.01-0.0042-0.015-0.01502 7e-3 -0.0077 8e-3 -2.92e-4 0.015-0.0077zm-4.9718 1.1734c0.38357 0.0154 0.79996 0.12774 0.10529 0.29333-0.84084-0.23106-0.48925-0.29333-0.10529-0.29333zm4.6333 0.14291c0.22683 0.07702 0.11523 0.87842-0.33846 0.24069 0.15134-0.20026 0.26298-0.2792 0.33846-0.24069zm-2.8055 0.26326c0.40732-0.20411 1.1558 1.3644-0.15042 0.21061 0.0374-0.11553 0.0923-0.1721 0.15042-0.21061zm44.761 0.25575c0.13224-0.0077-0.0624 0.80737-0.25575 0.36104 0.12747-0.26572 0.21146-0.35796 0.25575-0.36104zm6.9725 0.05264c0.20268 0.22298 0.0327 1.5241-0.72207 1.3238 0.34506-1.2042 0.60038-1.4586 0.72207-1.3238zm-49.515 0.79729c0.32087-0.04236 0.77661 0.26892-0.21812 0.18805 0.0177-0.12323 0.11114-0.18805 0.21812-0.18805zm-0.37609 0.32341c0.30277-0.03658 0.10852 0.81381-0.47386 0.41369 0.21481-0.28652 0.37305-0.41369 0.47386-0.41369zm29.229 0.42121c-0.72473-0.0154-1.4775 0.03735-2.264 0.16548-1.3033 0.21242-2.452 0.64611-3.475 1.2561 0.079 0.21504 0.0782 0.50049-0.21813 0.11284-1.0853 0.68857-2.0098 1.6012-2.7679 2.7529-1.5094 2.2765-1.9777 5.1682-1.4065 8.6724 0.42683 2.6187 1.3626 4.7151 2.7679 6.3482 0.19398-0.41729 0.33585-0.6212 0.3836-0.57916 0.0736 0.06628-0.022 0.48939-0.24069 0.73712 0.12558 0.13983 0.22787 0.30389 0.36104 0.43625 0.15885 0.15578 0.35141 0.25074 0.51899 0.39112 0.025-0.02619 0.0591-0.10309 0.0827-0.12034 0.22763-0.16506 0.3499 0.11611 0.40616 0.4889 0.79661 0.5718 1.6474 1.0499 2.61 1.3238 0.34679-0.45376 0.61315-0.73805 0.75216-0.78976 0.34475-0.1319 0.12296 0.65707-0.3159 0.89507 0.29091 0.06743 0.62024 0.06967 0.92515 0.11284-0.16024-2.529 0.10483-4.0167 0.51899-4.6634-0.27142-0.13209-0.5579-0.20372-0.81233-0.39865-0.61143-0.47544-1.0566-1.1584-1.4141-1.9481-0.10097 0.0258-0.18974 0.05264-0.39112 0.05264-0.02-0.22721 0.0605-0.33373 0.17299-0.37609 0.0443-0.01579 0.0713 0.03466 0.12035 0.03774-0.17669-0.44241-0.36428-0.86629-0.46634-1.399-0.0423 0.08923-0.18258 0.09504-0.53404-0.2031-0.11676 0.33801-0.45932 0.79638-0.72959 0.39864 0.36716-0.48177 0.58085-0.65348 0.69199-0.69199 0.10463-0.0258 0.0991 0.10117 0.0526 0.25575 0.0846-0.19236 0.18289-0.23884 0.27832-0.2031 0.14911 0.04841 0.27177 0.26969 0.27076 0.40617l3.0312-0.49652c0.0863-0.63758 0.25544-0.89941 0.39865-0.86498 0.19555 0.04232 0.31432 0.49438 0.0377 0.79729l10.508-1.7149c-0.3652-2.5365-1.0266-4.5787-1.9255-6.2354-0.0354 0.59641-0.35364 1.2441-1.1959 0.9402 0.28217-1.0494 0.54709-1.5304 0.75968-1.6848-0.53083-0.82197-1.1104-1.563-1.7978-2.1286-1.6186-1.3407-3.5196-2.0367-5.6938-2.0835zm19.947 0.33096c0.27735 0.03273-1.002 1.0462-0.90259 0.39112 0.54831-0.30231 0.81017-0.39112 0.90259-0.39112zm-50.003 0.11284c0.63311 0.07201 0.65733 0.97822-1.4667 1.1207 0.49035-0.90885 1.087-1.1631 1.4667-1.1207zm33.524 0.52651c0.24993-0.12092 0.47128 1.4085-0.22563 0.81233 0.057-0.54646 0.14245-0.76997 0.22563-0.81233zm-1.1884 0.0677c0.22702 0.07702 0.10771 0.87804-0.34598 0.24069 0.15096-0.20025 0.2705-0.2792 0.34598-0.24069zm-3.7984 0.21061c0.38449-0.11476-0.34443 0.8148-0.8048 0.54907 0.4278-0.35276 0.67656-0.51056 0.8048-0.54907zm-30.598 0.1354c0.2306 0.07394 0.27065 1.4636-0.27832 0.50395 0.10552-0.40359 0.20126-0.54246 0.27832-0.50395zm49.131 0.12035c0.27257-0.24108 0.73927 0.71455-0.15043 0.71455-9e-3 -0.42169 0.0595-0.63368 0.15043-0.71455zm-19.759 0.25575c0.14912 0.08087-0.0788 0.88246-0.29333 0.23318 0.14595-0.19255 0.24365-0.27169 0.29333-0.23318zm-0.99284 0.05264c0.47938 0.19563-0.30917 1.6782-2.2565 1.6397 1.2257-1.4126 1.9688-1.7552 2.2565-1.6397zm7.2658 0.54155c0.22591 0.02311 0.21593 0.94391-0.29333 0.36855 0.119-0.28498 0.21785-0.36855 0.29333-0.36855zm1.3539 0.6619c0.22678 0.07702 0.11518 0.87804-0.33847 0.24069 0.15134-0.20026 0.26299-0.2792 0.33847-0.24069zm1.2486 0.48138c0.14927 0.08472-0.0713 0.88998-0.28583 0.24069 0.14596-0.1964 0.23615-0.2792 0.28583-0.24069zm-6.1602 0.45882c0.0449 0.04852-0.0554 0.28667-0.0903 0.46634 0.70844 0.07891 1.39 0.28378 2.0083 0.75968 0.85698 0.64913 1.4121 1.7294 1.7375 3.144 0.29126 0.11576 0.35719 0.77472-0.62429 0.77472 0.0475-0.20476 0.11966-0.22425 0.1805-0.34598l-6.0248 0.9778c9e-3 1.0961-0.30485 1.1147-0.65438 0.9402-0.0724 0.69088-0.18901 1.4119-0.56412 2.0835-0.76231-3.2684-0.049-2.3877 0.56412-2.0835 0.0316-0.30069 0.0571-0.56294 0.0827-0.84242l-1.211 0.19556c-0.26207-1.5242-0.0648-2.7945 0.58668-3.8134 0.44553-0.69618 1.0769-1.1303 1.7901-1.4441 0.11726-0.22317 0.32129-0.67622 0.37609-0.73711 0.14811-0.16394 0.0661 0.20457-0.0752 0.62429 0.24443-0.08542 0.4496-0.2261 0.72207-0.27077 0.27092-0.04417 0.51548 0.02349 0.77473 0.03004 0.18951-0.2683 0.37297-0.51114 0.4212-0.45881zm-26.942 0.11284c0.0624 0.20372-1.3527 1.9783-0.68447 0.49642 0.48227-0.45789 0.66521-0.56574 0.68447-0.49642zm20.429 0.12034c0.2306 0.07394 0.27072 1.4636-0.27832 0.50394 0.10552-0.40359 0.20126-0.54246 0.27832-0.50394zm-0.57164 0.70703c0.12712 0.11938-0.11711 1.2912-0.27077 0.35353 0.14056-0.31194 0.22841-0.39202 0.27077-0.35353zm-22.046 0.51899c0.41272-0.09088-0.29672 1.1818-0.8349 0.6619 0.43478-0.45173 0.69734-0.62339 0.8349-0.6619zm0.91011 0.05264c0.16294 0.03851-0.27296 0.53149-0.39865 0.15797 0.22002-0.11938 0.34452-0.15797 0.39865-0.15797zm-7.6494 0.44377c-0.64258-0.07587-1.2809-0.06647-1.918 0.03774-0.90259 0.14711-1.6809 0.50743-2.3242 1.0756-0.36077 0.32437-0.72822 0.85985-1.0982 1.5118 0.27828 0.42463 0.51717 1.5533-0.14291 2.076-0.13159-0.69198-0.15728-1.0806-0.17299-1.4366-0.17233 0.34455-0.3372 0.63086-0.51147 1.0455l-0.49642-3.0086-0.0903 0.01502c-7e-3 0.36023-0.0895 0.52313-0.32341 0.05264l-4.7762 0.78224 0.1354 0.81985c0.22587-0.16317 0.4708-0.35025 0.54156-0.32345 0.21377 0.05418-0.16525 0.69126-0.47386 0.75968l3.2418 19.887 5.5961-0.91011-0.76721-4.701c-1.6524 0.84207-2.6107 1.1003-0.1354-0.81985l-0.16548-1.0079c-0.23522-1.4432-0.37471-2.548-0.49642-3.6028-1.4701 2.0719-2.5665 2.9234-0.16548-2.3618-8e-3 -0.3873-0.0649-0.93876-0.0377-1.2035 0.065-0.56937 0.17098-1.0539 0.3159-1.4667-0.0823-0.02234-0.17241-0.08018-0.27832-0.23318 0.22756-0.1964 0.37621-0.2792 0.46634-0.24069 0.0243 0.0081 0.022 0.04205 0.0377 0.06015 0.11804-0.23345 0.22325-0.48914 0.3761-0.65437 0.47282-0.52605 1.0972-0.85696 1.8804-0.98533 0.50342-0.08207 1.0674-0.01078 1.6623 0.1354-0.0112-0.70572 0.11927-0.94534 0.25575-0.89507 0.21997 0.08191 0.38376 0.76153-0.11284 0.9402 0.31937 0.08688 0.63395 0.15758 0.97781 0.30839l0.0227-0.14291c-0.0645 0.08295-0.149 0.0972-0.24069-0.1805 0.14595-0.1964 0.23614-0.27169 0.28582-0.23318 0.0388 0.02195-3e-3 0.12254-8e-3 0.2031l0.87251-4.8063c-0.64804-0.25571-1.2905-0.42056-1.933-0.49643zm41.384 0.21061c0.34744-0.04044 0.84328 0.70727-0.23318 0.37609 0.02-0.26187 0.11727-0.37609 0.23318-0.37609zm-24.565 0.24069c0.45212 0.19679-0.66242 1.8793-1.0605 0.46634 0.58255-0.42785 0.90997-0.53181 1.0605-0.46634zm-25.927 1.3088c0.1493 0.08472-0.0709 0.88998-0.28583 0.24069 0.14596-0.1964 0.23615-0.2792 0.28583-0.24069zm16.502 1.0004c0.44671 0.01926 1.0646 0.51906-0.30839 0.19556 0.0312-0.15019 0.15959-0.19556 0.30839-0.19556zm-1.1057 0.05264c0.25814 0.05777 0.0304 0.67694-0.42873 0.19556 0.20384-0.15789 0.34275-0.19556 0.42873-0.19556zm-5.5208 0.03774c0.14419 0.05777-0.0304 0.68003-0.26326 0.19556 0.12728-0.15019 0.21528-0.19556 0.26326-0.19556zm52.628 0.11284c0.1756 0.05707-0.12378 0.48653-0.75968 1.053-0.0312 0.09913-0.062 0.13787-0.0978 0.08276-0.25902 0.2214-0.39086 0.39248-0.81986 0.66942 0.22953-0.50969 0.48499-0.78888 0.7296-1.0756 3e-3 -0.0081 5e-3 1.92e-4 8e-3 -0.0077 0.13028-0.39291 0.20291-0.50792 0.24069-0.45882 8e-3 0.01078-0.0123 0.08222-8e-3 0.10529 0.31347-0.29434 0.58123-0.40924 0.70703-0.36855zm-48.198 0.1354c0.24597 0.06162-0.55796 0.58115-0.6619 0.14291 0.37956-0.14634 0.58007-0.18142 0.6619-0.14291zm3.4825 0.0077c0.36912-0.09974 1.0064 0.77737-0.20307 0.50394-0.0162-0.3308 0.0802-0.46543 0.20307-0.50394zm-12.644 0.33849c0.22663 0.07702 0.10771 0.87804-0.34598 0.24069 0.15135-0.20025 0.2705-0.2792 0.34598-0.24069zm-17.6 0.03004c-0.95349 0-2.0542 0.10506-3.302 0.30839-2.7476 0.44775-4.7385 1.2724-5.9721 2.4821-1.2336 1.2092-1.9738 2.8873-2.2113 5.0244l5.2275 0.08272c0.18562-1.0305 0.53073-1.7832 1.0229-2.2565 0.14611-0.14515 0.35873-0.2447 0.54908-0.36104-0.042-0.04013-0.083-0.0699-0.12035-0.20307 0.18204-0.2266 0.27632-0.28109 0.33847-0.26326 0.0189-0.02041 8e-3 -0.11954 0.03-0.12785 0.13101-0.03813 0.2926 0.13995 0.37609 0.32341 0.32214-0.13321 0.63178-0.27754 1.053-0.34598 1.4734-0.23954 2.5148-0.16756 3.1215 0.21061 0.60448 0.36458 0.99812 1.0835 1.1734 2.1587l0.0903 0.5566c-0.93956 0.58896-2.6776 1.3389-5.2125 2.2565-0.60372 0.22109-1.0789 0.44229-1.587 0.6619-0.0563 0.26557-0.33411 0.58805-0.78224 0.33096-0.0327 0.0154-0.0506 0.02965-0.0827 0.04513 0.48023 0.73229 0.85981 1.8464-0.30088 1.3088-0.14665-0.44574-0.20292-0.71953-0.26326-0.99285-0.43852 0.2306-0.90854 0.46244-1.2335 0.69199-0.0468 0.03273-0.0749 0.07925-0.12034 0.11284-0.87045 0.64249-1.5216 1.4382-1.918 2.4219-0.41933 1.0223-0.52567 2.1297-0.33096 3.3245 0.0116 0.07167 0.0392 0.13271 0.0526 0.2031 0.39606-0.65139 0.64151-0.96276 0.74464-0.96276 0.28363-0.04386-0.32211 1.6225-0.65438 1.3012 0.12955 0.53508 0.3082 1.0345 0.54907 1.4893 0.13494-0.6786 0.2623-1.2735 0.30839-1.2711 0.0924 5e-3 0.03 1.0152-0.0752 1.7074 0.42831 0.66444 0.98237 1.2355 1.6773 1.7074 1.4535 0.97585 3.2612 1.2875 5.4381 0.93267 1.2344-0.20129 2.3645-0.62178 3.3772-1.2636 1.0127-0.6421 1.9186-1.5025 2.7228-2.5874 0.0571 0.09963 0.16128 0.30747 0.30839 0.62429 0.28706 0.60242 0.50612 1.0123 0.6995 1.3539 0.03 0.0528 0.0777 0.16406 0.10529 0.21061l0.67694-0.11284c0.12081-0.31725 0.28617-0.46935 0.47386-0.39864 0.11557 0.04356 0.21362 0.1567 0.30088 0.27832l4.0842-0.66942c-0.65562-0.92862-1.1457-1.8167-1.4742-2.6626-0.17688-0.47977-0.34605-1.4828-0.51899-2.2715-0.11083 0.03697-0.2314 0.07548-0.49642 0.06019-0.10244-0.31887-0.037-0.48397 0.0827-0.53403 0.0856-0.03697 0.19964-0.01309 0.30839 0.03004-0.10305-0.50882-0.2073-0.74115-0.30839-1.3614l-0.0227-0.15793c-0.15497 0.10444-0.34821 0.13583-0.58668 0.0077 0.22648-0.42365 0.34486-0.49531 0.4889-0.65438l-0.18804-1.1959c0.0909 0.27762-0.12755 0.54652-1.1207 0.42873-0.069-0.56456 0.0707-0.82172 0.27077-0.90259 0.29422-0.11788 0.71843 0.15597 0.84241 0.43625l-0.69198-4.5054c-0.10779-0.66129-0.24924-1.1127-0.3761-1.6547-0.0535-0.05484-0.1027-0.07633-0.17299-0.22563 0.0436-0.09258 0.0607-0.05053 0.0978-0.10529-0.32306-1.2816-0.68205-2.336-1.1207-2.8883-0.20052-0.26176-0.49308-0.45987-0.75968-0.67694 0.18716 0.31159 0.21659 0.76538-0.44377 0.92516-0.27342-0.96392-0.12096-1.2721 0.0978-1.2335-0.51572-0.34213-1.1114-0.63297-1.8278-0.84242-0.65926-0.20334-1.4609-0.30839-2.4144-0.30839zm56.495 0.27077c1.0606-0.25186 0.16875 3.5946-1.745 1.9707 0.82235-1.3498 1.3915-1.8859 1.745-1.9707zm6.9575 0.22563c0.10155 0.14018-0.301 1.5689-0.81233 1.6999 0.50849-1.4033 0.75148-1.7846 0.81233-1.6999zm-47.92 0.43625c0.14927 0.08472-0.0713 0.89036-0.28582 0.24069 0.14595-0.1964 0.23615-0.2792 0.28582-0.24069zm21.241 0.17299c0.24207 0.08126-0.37063 2.117-0.57164 0.7672 0.31863-0.60538 0.49115-0.80571 0.57164-0.7672zm-18.623 0.11284c0.14241 0.06932-0.0523 0.25213-0.30089 0.44378 0.16336-0.14249 0.0776-0.34178 0.30089-0.44378zm-1.3238 0.19556c0.27504-0.10205 0.0478 0.29969-1.5118 1.5043 0.45951-0.79601 1.2369-1.4042 1.5118-1.5043zm10.154 0.12035c0.21701 0.05006 0.14834 0.65401-0.30839 0.18805 0.13213-0.15019 0.23615-0.18805 0.30839-0.18805zm-25.115 0.01502c0.71291-0.11861 0.65571 1.4304-1.7676 2.4821 0.63154-1.7391 1.3398-2.4128 1.7676-2.4821zm26.461 0.40617c0.38191-0.05083-0.15481 0.89709-0.72207 0.47386 0.36392-0.32349 0.59464-0.47386 0.72207-0.47386zm49.861 0.36104c0.66974 0.12439 1.2033 1.4297-0.82737 1.5645-0.0262-1.2913 0.42552-1.6377 0.82737-1.5645zm-23.655 0.21812c0.62923 0.1448 1.4133 1.1001-0.37609 1.0154-0.32345-0.89691-1e-3 -1.104 0.37609-1.0154zm-62.106 0.04514c0.33346 0.15828 0.16302 1.721-0.50394 0.46634 0.22243-0.4163 0.39265-0.52025 0.50394-0.46634zm44.212 0.06747c0.20992 0.05777-0.37305 0.84284-0.51899 0.26326 0.29214-0.21566 0.4489-0.26326 0.51899-0.26326zm-34.449 0.07521c0.52714-0.0828 1.4057 0.63705-0.30088 0.41369-0.0115-0.26996 0.12512-0.37517 0.30088-0.41369zm26.265 0.04513c0.22771-0.01232 0.36689 1.1502-0.23318 0.51899 0.0718-0.37394 0.1572-0.51899 0.23318-0.51899zm-23.219 0.03774c0.14911 0.08472-0.0788 0.89036-0.29333 0.24069 0.14595-0.1964 0.24365-0.2792 0.29333-0.24069zm9.1162 0c0.17014 0.07317-0.3739 0.41796-0.4513 0.07521 0.25952-0.07317 0.39469-0.11372 0.4513-0.07521zm17.6 0c0.39416-0.21758 1.3636 0.98214-0.0903 0.79729-0.10744-0.48947-0.041-0.72412 0.0903-0.79729zm20.105 0.04513c0.21716 0.05391 0.14079 0.66904-0.31591 0.2031 0.13179-0.15789 0.24366-0.2031 0.31591-0.2031zm-40.278 0.03004c0.20988 0.05777-0.37305 0.84284-0.51899 0.26326 0.29218-0.21566 0.4489-0.26326 0.51899-0.26326zm37.781 0.20307c0.068 0.03736-0.0528 0.57647-0.63181 2.0233-0.11588-0.76405 0.51859-2.0849 0.63181-2.0233zm-36.547 0.06019c0.72666 0.02311 0.95502 0.92402-1.4968 2.625-0.45477-1.7938 0.77014-2.6635 1.4968-2.625zm-34.381 0.35353c-0.40467-0.03081-0.86173 0.03543-1.3012 0.0677-0.0711 0.30265-0.42716 0.52927-1.0229 0.08276-1.1673 0.21015-2.2261 0.64793-3.1741 1.3539-0.37012 0.27554-0.70917 0.63247-1.0455 0.98533 0.0324 0.32853-0.022 0.71456-0.3159 1.038-0.0677-0.29091-0.0603-0.41514-0.0903-0.62429-0.40708 0.48374-0.78992 1.018-1.1433 1.6247-0.821-1.0241-1.7793-1.7332-2.8657-2.1286-1.0864-0.39538-2.3016-0.48405-3.6555-0.26326-0.84029 0.13687-1.6001 0.4365-2.3242 0.80481 0.17788 0.20453 0.0577 0.70234-0.45881 0.25575-1.2705 0.76002-2.3778 1.8527-3.2644 3.3772l-0.46634-2.8883-5.1598 0.84242 0.93268 5.739c-3e-3 0.02426 0.0169 0.03273 8e-3 0.05264l0.5942 3.6254c0.0405-0.03004 0.0904-0.13082 0.12786-0.15042 0.46399-0.24073 0.62246 0.27477-0.0602 0.57916l0.57164 3.5201c0.059-0.05607 0.13667-0.1577 0.16547-0.1354 0.10545 0.05984 0.0258 0.46342-0.10528 0.47386l0.3159 1.9481c1.4718-1.2844 2.4554-1.7909 3.2944-2.4671 0.48873-0.61655 0.99858-1.2457 1.6623-1.9481-0.59819 0.97701-1.1244 1.5145-1.6623 1.9481-1.0292 1.2984-1.8929 2.4474-3.1139 3.5803l0.71455 4.3776 5.5961-0.91011-1.6698-10.274c-0.0672-0.412-0.0801-0.70174-0.12785-1.0681-0.1934 0.01155-0.37833-0.04213-0.51147-0.21812 0.25559-0.12836 0.28675-0.09439 0.46634-0.16548-0.1455-1.2495-0.21339-2.3097-0.10529-2.9785 0.16255-0.92579 0.55137-1.6791 1.1658-2.2565 0.61452-0.57638 1.3561-0.93438 2.2189-1.0756 0.71677-0.11811 1.301-0.06797 1.76 0.15797 0.47233 0.22309 0.86181 0.61632 1.1583 1.1809 0.12512 0.23838 0.25155 0.68417 0.38361 1.1884 0.24804-0.12354 0.41944-0.1805 0.4889-0.1805 0.20252 0.04332-0.20237 0.48362-0.44377 0.30088 0.16817 0.67332 0.3397 1.5252 0.51899 2.625l1.8879 11.591 5.5961-0.91011-1.6548-10.154c-0.0445-0.27319-0.0473-0.46065-0.0827-0.71455-0.11326 0.10529-0.26584 0.16806-0.48138 0.03004 0.19451-0.32692 0.32063-0.41953 0.42873-0.4889-0.16753-1.3632-0.2412-2.5162-0.12035-3.2644 0.15385-0.97894 0.53844-1.764 1.1508-2.3543 0.61235-0.58946 1.3079-0.94722 2.091-1.0756 1.0752-0.17534 1.94 0.09289 2.5874 0.80481 0.48447 0.54813 0.89174 1.8668 1.2336 3.9639l1.7976 11.049c0.0848 0.15423 0.15235 0.29923 0.0752 0.4212l0.0978 0.61677 5.596-0.91011-0.0752-0.4513c-5e-3 7.28e-4 -0.01 0.0069-0.015 0.0077 7e-3 -0.0154 9e-3 -0.01502 0.015-0.03004l-2.1286-13.042c-0.32884-2.0174-0.75415-3.4473-1.2862-4.2873-0.72999-1.1345-1.6889-1.9283-2.8657-2.3768-0.58953-0.23106-1.22-0.36924-1.903-0.42121zm36.028 0.40617c0.37563-0.19486 0.71029 0.6782-0.33847 0.62429 0.0851-0.37779 0.21331-0.55882 0.33847-0.62429zm-21.03 0.50394c0.24759-0.05969 0.33039 0.7104-0.28582 0.40617 0.0974-0.27535 0.20341-0.36766 0.28582-0.40617zm-18.112 0.1354c0.34656 0.08087 0.17411 0.89673-0.51899 0.2482 0.23091-0.20796 0.40346-0.28671 0.51899-0.2482zm29.665 0c0.27023 0.08472-0.0185 0.89806-0.47386 0.24069 0.2274-0.20025 0.38376-0.2792 0.47386-0.24069zm-4.5656 0.23318c0.14931 0.08472-0.0709 0.88284-0.28582 0.23318 0.14595-0.1964 0.23614-0.27169 0.28582-0.23318zm-21.993 0.01502c0.40335-0.11322 1.059 0.8225-0.24069 0.54908-5e-3 -0.35083 0.10621-0.51056 0.24069-0.54908zm97.856 0.05264c0.26087-0.03158 0.70878 0.82747-0.14292 0.40616-0.01-0.29075 0.0559-0.40616 0.14292-0.40616zm-60.466 0.1354c0.0732 0.1656-0.0783 0.89307-0.15798 0.12786 0.0855-0.1656 0.13487-0.17792 0.15798-0.12786zm45.791 0v0.01502c-0.1322 1.1117-0.45837 1.9519-0.9778 2.5273-0.51941 0.57432-1.215 0.93182-2.091 1.0756-0.4795 0.0781-0.9209 0.02003-1.3614-0.03774 0.28152 0.94958 0.14762 2.5489-1.1057 4.34 0.96959 0.07537 1.9799 0.07583 3.0914-0.10529 1.2417-0.20241 2.3406-0.54474 3.3095-1.0154 0.0753-0.12096 0.14645-0.23857 0.20306-0.27077 0.0528-0.02965 0.0689 0.06061 0.10529 0.09027 0.71131-0.37964 1.3641-0.81421 1.918-1.3464 1.0573-1.0194 1.7965-2.301 2.264-3.8134-2e-3 -0.02118-7e-3 -0.01309-8e-3 -0.03774 0.0123-0.02349 0.0112-0.0026 0.0227-0.02272 0.11098-0.3662 0.22293-0.73415 0.30084-1.1282-0.13001 0.08534-0.35545 0.10729-0.65437-0.11284 0.16967-0.09786 0.24835-0.09204 0.36103-0.12034zm-70.695 0.45121c0.16244-0.07702 0.65253 0.32853 0 0.27077-0.0731-0.16945-0.0543-0.23226 0-0.27077zm22.527 0.05264c0.1493 0.08472-0.0709 0.88284-0.28583 0.23318 0.14596-0.1964 0.23615-0.27169 0.28583-0.23318zm27.318 0.12786c0.22455-0.0092 0.49276 1.2243-0.17299 0.54155 0.0289-0.39666 0.098-0.53847 0.17299-0.54155zm22.031 0.04513c0.35965-0.06046 0.25902 0.80944-0.50394 0.4513 0.2155-0.305 0.38418-0.41279 0.50394-0.4513zm-32.095 0.0077c-6e-3 0.10629-1.8058 1.4244-0.7672 0.42121 0.56717-0.36431 0.76858-0.45972 0.7672-0.42121zm18.405 0.03004c0.28772-0.12632 0.80541 0.86781-0.15042 0.58668-0.0192-0.38279 0.0545-0.54432 0.15042-0.58668zm-16.239 0.04513c0.0297 0.16367-1.0884 2.2682-0.51898 0.69199 0.3692-0.5842 0.50743-0.7459 0.51898-0.69199zm-3.9187 0.6619c0.10856 0.05326 0.0281 0.33427-0.0978 0.45129 0.12828 0.13987 0.0374 0.2472-0.81985 0.04513 0.0212-0.20411 0.1555-0.27754 0.3159-0.27832 0.10783-8.63e-4 0.16028 0.07529 0.26326 0.12034-0.02-0.03813-0.0418-0.03196-0.0602-0.09027 0.21227-0.21181 0.33589-0.28671 0.39864-0.2482zm-15.156 0.19556c0.43397-0.09936 1.0873 0.56003-0.27831 0.41369 0.0131-0.25956 0.13351-0.37517 0.27831-0.41369zm39.135 0.03774c0.22702 0.08087 0.10771 0.86975-0.34598 0.23318 0.15096-0.23491 0.2705-0.27169 0.34598-0.23318zm-50.68 0.11284c0.39369-0.3878 0.039 3.3908-0.6619 2.1211 0.3107-1.3945 0.53058-1.9901 0.6619-2.1211zm64.377 0.33096c0.0797 0.12708-0.60216 1.3685-0.39113 0.37609 0.25903-0.33119 0.36416-0.41844 0.39113-0.37609zm-89.176 0.08272c0.17784 0.07787 0.14811 0.46254-0.56412 0.62429 0.0889-0.3181 0.22274-0.49829 0.33847-0.57916 0.0867-0.06169 0.16636-0.07109 0.22563-0.04513zm12.26 0.15042c0.22679 0.07702 0.11518 0.8709-0.33847 0.23318 0.15135-0.23106 0.26299-0.27169 0.33847-0.23318zm46.822 0c0.1884 0.08857-0.17799 0.94795-0.39864 0.2482 0.21227-0.20796 0.33589-0.28671 0.39864-0.2482zm-56.344 0.07521c0.68091-0.29538 2.5382 2.1462-0.0827 1.4291-0.24531-0.92348-0.14411-1.329 0.0827-1.4291zm-14.509 0.15042c0.22683 0.07702 0.11523 0.87842-0.33846 0.24069 0.15134-0.20025 0.26298-0.2792 0.33846-0.24069zm99.984 0c0.23545 0.03466 0.25829 1.0279-0.29334 0.3836 0.11245-0.30038 0.21477-0.3836 0.29334-0.3836zm-32.884 0.23318c0.17714 0.07317 0.23487 0.88132-0.20307 0.2482 0.0712-0.20796 0.14415-0.28671 0.20307-0.2482zm-19.466 0.15797c0.0754 0.05492-8e-3 0.25421-0.11284 0.46634 0.34302-0.18135 0.59592-0.2822 0.69199-0.2482 0.31062 0.07694-0.42752 0.87031-0.72959 0.33847-0.27335 0.47655-0.82701 1.0296-1.3915 0.75968 0.69766-0.82297 1.1276-1.1973 1.3614-1.3012 0.0876-0.03944 0.1448-0.04105 0.18053-0.01502zm-42.723 0.19556c0.0756 0.10398-0.032 0.68298-0.14292 0.10529 0.0729-0.14249 0.11866-0.1438 0.14292-0.10529zm93.945 0.03004c0.63631-0.16482-0.34113 1.1178-1.2335 0.75968 0.63542-0.49409 1.0213-0.70576 1.2335-0.75968zm-60.308 0.06019c0.21697 0.05391 0.14834 0.66907-0.30839 0.20307 0.13216-0.15789 0.23614-0.20307 0.30839-0.20307zm-38.428 0.03774c0.22702 0.07702 0.10771 0.87727-0.34598 0.24069 0.15096-0.20026 0.2705-0.2792 0.34598-0.24069zm110.63 0c0.14927 0.08472-0.0713 0.88284-0.28582 0.23318 0.14595-0.1964 0.23614-0.27169 0.28582-0.23318zm-109.79 0.0677c0.27138 0 0.20649 0.81468-0.3761 0.34598 0.15878-0.25802 0.28575-0.34559 0.3761-0.34598zm48.604 0.17299c0.14438 0.05777-0.0304 0.68003-0.26325 0.19556 0.12724-0.15019 0.21527-0.19556 0.26325-0.19556zm-35.412 0.21812c0.1493 0.08472-0.0709 0.88284-0.28583 0.23318 0.14596-0.1964 0.23615-0.27169 0.28583-0.23318zm100.16 0c0.0732 0.15789-0.0782 0.88555-0.15797 0.12035 0.0855-0.15789 0.13487-0.17041 0.15797-0.12035zm-98.262 0.24069c0.21681 0.05006 0.14834 0.66154-0.3084 0.19556 0.13217-0.15019 0.23615-0.19556 0.3084-0.19556zm74.667 0.24069c-0.3828 0.1086-1.0691 1.1044-0.0677 1.1583 0.41514-0.97354 0.29722-1.2238 0.0677-1.1583zm-43.836 0.14291c0.0586-0.03901 0.11106-0.03466 0.15042 0.0077 0.26264 0.28498 0.0793 2.1142-0.88002 1.9255 0.30045-1.2824 0.55383-1.8161 0.72959-1.933zm-14.456 0.04513c0.3028-0.01001 0.43464 0.1723-0.519 0.57164-0.25748-0.36238 0.21616-0.57164 0.519-0.57164zm45.22 0.03004c0.2457-0.30385 1.1706 1.1693 0.0827 1.0229-0.1679-0.62156-0.16436-0.9228-0.0827-1.0229zm16.6 0.03774c0.15908-0.06547 0.63216 0.46225-8e-3 0.3159-0.0711-0.2041-0.0461-0.27739 8e-3 -0.3159zm2.8356 0c-0.11168 0.21951-2.6366 1.3324-0.94019 0.22563 0.74379-0.25802 0.9787-0.29495 0.94019-0.22563zm1.8503 0.10529c0.95603-0.15481 0.36377 1.095-3.1064 2.1437 1.4028-1.4526 2.5328-2.0512 3.1064-2.1437zm-106.12 0.04513c0.12786-0.11091 0.82292 0.32826 0.1354 0.33096-0.15866-0.1964-0.17737-0.29245-0.1354-0.33096zm21.67 0.43625c0.41399 0.02234 0.15301 1.794-0.64685 0.72959 0.29168-0.55262 0.50891-0.72959 0.64685-0.72959zm15.442 0.21812c0.53551 0.01926 1.1121 0.45429-0.44377 0.16548 0.0878-0.12323 0.26506-0.16548 0.44377-0.16548zm-25.385 0.0677c0.21696 0.05391 0.14834 0.66154-0.3084 0.19556 0.13217-0.15789 0.23615-0.19556 0.3084-0.19556zm29.785 0c0.18651 0.04506 0.39445 0.43721 0.0677 1.038-0.41922-0.78061-0.25421-1.0842-0.0677-1.038zm60.511 0.02272c0.27027 0.08857-0.0112 0.89054-0.46634 0.23318 0.22756-0.23491 0.37621-0.27169 0.46634-0.23318zm-81.391 0.44377c0.14926 0.08472-0.0713 0.88246-0.28583 0.23318 0.14596-0.1964 0.23615-0.27169 0.28583-0.23318zm22.663 0.43626 0.1805 1.1132c0.21847 1.3404 0.29372 2.2588 0.22563 2.7604-0.0934 0.76456-0.43573 1.4536-1.0305 2.0684-0.30196 0.30396-0.63173 0.51619-0.96276 0.72959 0.71605 0.31582 1.3331 0.87362 0.0752 1.0681-0.45529-0.34224-0.56365-0.5099-0.73712-0.70703-0.35787 0.1582-0.7193 0.31317-1.1057 0.37609-0.90258 0.14711-1.6922-0.01348-2.3693-0.4889-0.67709-0.47574-1.0758-1.1049-1.2035-1.8879-0.12981-0.7964 0.12905-1.5147 0.77473-2.1512 0.42589-0.39667 1.3893-0.88938 2.8883-1.4742 1.4988-0.58587 2.5864-1.0515 3.2644-1.4065zm42.309 0.2482c0.20257 0.12708 0.74671 1.3617-0.03 0.36854-0.0697-0.33119-0.0377-0.41092 0.03-0.36854zm-45.904 0.11284c0.23545 0.03466 0.25825 1.0275-0.29333 0.3836 0.11245-0.30038 0.21477-0.3836 0.29333-0.3836zm44.55 0.22563c0.53113-0.24955 0.50942 1.1448-0.69199 0.91764 0.27682-0.57072 0.51484-0.83291 0.69199-0.91764zm-59.353 0.3836c0.14931 0.08472-0.0709 0.88998-0.28582 0.24069 0.14595-0.1964 0.23614-0.2792 0.28582-0.24069zm21.88 0c0.50564 0.08472 0.0146 0.91945-0.85746 0.2482 0.41445-0.20796 0.68878-0.28671 0.85746-0.2482zm1.6999 0c0.38841 0.08472-9e-3 0.90769-0.66943 0.24069 0.32361-0.20026 0.54003-0.2792 0.66943-0.24069zm37.518 0.15042c0.3149-0.03774 0.41699 1.004-0.36104 0.49642 0.12709-0.35006 0.25629-0.49642 0.36104-0.49642zm-50.981 0.09778c0.14437 0.05777-0.0304 0.67249-0.26326 0.18805 0.12724-0.15019 0.21527-0.18805 0.26326-0.18805zm-12.584 0.32341c0.14438 0.05776-0.0304 0.67249-0.26325 0.18805 0.12723-0.15019 0.21527-0.18805 0.26325-0.18805zm2.0835 0c0.28444-0.07587 0.64912 0.58386-0.21061 0.3836 0.0285-0.25032 0.11557-0.34509 0.21061-0.3836zm-16.074 0.2031c0.26976-0.03158 1.0803 0.60882 0.36854 0.47386 0.17137 0.17253-0.37994 1.3781-0.50395 0.35353 0.27639-0.32206 0.41634-0.38476 0.48891-0.35353-0.0923-0.01849-0.11488-5e-3 -0.26326-0.05264-0.20006-0.30231-0.19217-0.42121-0.0903-0.42121zm45.844 0.34598c0.10652 0.09358-0.19721 0.81323-0.68446 0.77472 0.4101-0.66931 0.62069-0.83249 0.68446-0.77472zm-18.857 0.0677c0.55598-0.0019 1.3454 4.417-0.19555 6.2805-0.38723-4.6829-0.13795-6.2798 0.19555-6.2805zm38.39 0.03774c0.16059 0.11553 0.25601 1.2855-0.16548 0.35353 0.0512-0.31194 0.11195-0.39202 0.16548-0.35353zm-27.206 0.24069c0.17869 0.04236 0.30042 0.61165-0.17299 0.18805 0.0541-0.15019 0.11322-0.18805 0.17299-0.18805zm24.927 0.23318c0.14926 0.08087-0.0713 0.88246-0.28583 0.23318 0.14596-0.19255 0.23615-0.27169 0.28583-0.23318zm-62.294 0.50311c0.13209-0.0077-0.0549 0.80891-0.24821 0.36104 0.12786-0.26572 0.2043-0.35796 0.24821-0.36104zm38.774 0.11284c0.41501-0.02465 0.22725 1.0735-0.61677 0.50395 0.26911-0.36123 0.47863-0.50395 0.61677-0.50395zm-23.783 0.30088c0.1128 0.15327-1.1655 1.8203-0.69198 0.51899 0.46359-0.4498 0.65347-0.56906 0.69198-0.51899zm-2.0609 0.03774c0.14927 0.08087-0.0709 0.89036-0.28582 0.24069 0.14595-0.20026 0.23614-0.2792 0.28582-0.24069zm23.294 0.11284c0.37375 0.07047-0.40111 1.3097-0.81233 0.43625 0.43606-0.3593 0.68794-0.47476 0.81233-0.43625zm13.764 0c0.0685 0.17715-0.0243 1.3406-0.12786 0.27077 0.0647-0.26957 0.10475-0.32853 0.12786-0.27077zm11.628 0.15042c0.1991-0.18986 0.98935 0.77761 0.0827 0.65438-0.14981-0.40436-0.14896-0.59276-0.0827-0.65438zm-60.218 0.11284c0.14437 0.05777-0.0231 0.67964-0.25575 0.19556 0.12724-0.15404 0.20776-0.19556 0.25575-0.19556zm36.224 0.05264c0.19867 0.23645-0.0441 1.948-0.36104 0.42873 0.17676-0.42901 0.2948-0.5096 0.36104-0.42873zm10.229 0.1805c0.34348 0.01194-0.12296 3.2062-0.63933 1.3539 0.32395-1.0074 0.52496-1.3577 0.63933-1.3539zm-43.625 0.27832c0.28583 0.04198-0.73911 1.308-0.80481 0.4889 0.47085-0.37894 0.70958-0.4889 0.80481-0.4889zm18.954 0.21812c0.43331 0.08395-0.0516 1.9463-0.7672 0.69199 0.37278-0.54646 0.62279-0.7305 0.7672-0.69199zm-35.773 0.1805c0.33928-0.18909 2.0838 1.8197 0.30839 1.1057-0.38433-0.73208-0.42122-1.0441-0.30839-1.1057zm62.241 0c0.26137-0.05738 0.62216 0.7601-0.1805 0.42121 0.0189-0.29037 0.0935-0.42121 0.1805-0.42121zm-33.035 0.36104c0.30543-0.07625 0.0335 1.2731-0.51146 0.67694 0.2403-0.46482 0.40957-0.63843 0.51146-0.67694zm56.186-10.059s0.61293 0.71821 0.19332 2.673c0.0755-0.67124-0.41966-0.52726-0.19332-2.673zm-32.486 10.51c0.26006-0.14672 0.55114 0.72586-0.21061 0.56412 0.0393-0.35237 0.12396-0.51405 0.21061-0.56412zm-5.7615 0.15042c0.22544 0.13094 0.0459 0.68561-0.36854 0.07521 0.1706-0.11553 0.29345-0.11757 0.36854-0.07521zm-17.345 0.19556c0.67294-0.20642 0.71247 0.90253-0.84994 0.74464 0.3283-0.45712 0.62558-0.67532 0.84994-0.74464zm29.455 0.33847c0.1493 0.08472-0.0709 0.88284-0.28583 0.23318 0.14596-0.1964 0.23615-0.27169 0.28583-0.23318zm1.1057 0.24069c0.51211-0.09358 0.18235 1.3581-0.79729 0.74464 0.3662-0.50603 0.62669-0.70612 0.79729-0.74464zm-23.595 0.03774c0.4753 0.04467 0.88812 0.40703-0.17299 0.94772-0.83983-0.71668-0.30223-0.99393 0.17299-0.94772zm-7.8525 0.16548c0.3662-0.02311 0.60642 1.6984-0.36854 0.7672 0.10937-0.55956 0.24646-0.7672 0.36854-0.7672zm17.969 0.48138c0.5569-0.10471 0.23437 0.52256-0.65438 0.52651-4e-3 0.19864-0.0918 0.34136-0.36104 0-0.0139-0.01772-0.0231-0.0096-0.0377-0.03004 0.15135-0.20026 0.26299-0.27169 0.33847-0.23318 0.0289 0.01001 5e-3 0.06882 0.0227 0.09778 0.26264-0.15443 0.54803-0.33477 0.69199-0.36104zm6.9875 0.07521c0.0814 0.07741-0.24269 0.42313-0.94019 0.54155 0.32391-0.28421 0.56456-0.44215 0.72207-0.51147 0.11822-0.05226 0.19101-0.05588 0.21812-0.03004zm-27.025 0.1354c0.36785-0.06662 0.40493 0.13533-0.99285 0.81233-0.0736-0.40975 0.62507-0.74686 0.99285-0.81233zm-25.897 0.28582c0.22679 0.07702 0.11518 0.8709-0.33847 0.23318 0.15135-0.23106 0.26299-0.27169 0.33847-0.23318zm42.098 0c0.23542 0.03466 0.25814 1.0204-0.29333 0.37609 0.11245-0.30038 0.21477-0.37609 0.29333-0.37609zm-2.5122 0.30839c0.67821 0.16791 0.035 2.0927-2.5197 2.3392 1.2294-1.9086 2.1128-2.4393 2.5197-2.3392zm-23.031 0.08272c0.5196-0.0046 0.18211 1.2977-0.81233 0.56412 0.37124-0.41514 0.63926-0.56296 0.81233-0.56412zm31.779 0.19556c0.28267-0.20488 1.588 0.77304 0.19556 0.68446-0.27112-0.41091-0.28991-0.61514-0.19556-0.68446zm-12.065 0.12786c0.29868 0.07317 0.29899 0.89231-0.38361 0.25575 0.15173-0.21566 0.28425-0.29426 0.38361-0.25575zm7.6645 0.54155c0.27023 0.08857-0.0185 0.89054-0.47386 0.23318 0.2274-0.23491 0.38376-0.27169 0.47386-0.23318zm-16.254 0.22563c0.17715 0.07317 0.23492 0.88132-0.20306 0.2482 0.0712-0.20796 0.14414-0.28671 0.20306-0.2482zm-11.508 0.07521c0.0527 0.13094-0.7389 1.1897-0.40617 0.28582 0.27831-0.28498 0.38691-0.32819 0.40617-0.28582zm10.109 0.64685c0.22679 0.07702 0.11518 0.87804-0.33847 0.24069 0.15135-0.20026 0.26299-0.2792 0.33847-0.24069zm2.6777 0.17299c0.45131 0.04236 1.1584 0.97487-0.27831 0.34598 5e-3 -0.27342 0.12774-0.34598 0.27831-0.34598zm-4.2572 0.27832c0.0732 0.1656-0.0783 0.88555-0.15797 0.12034 0.0855-0.1656 0.13486-0.17041 0.15797-0.12034zm2.2339 0.57916c0.24758-0.05969 0.33042 0.71792-0.28583 0.41368 0.0974-0.27535 0.20341-0.41368 0.28583-0.41368zm1.2185 0.05264c0.24216 0.03581-0.32707 1.724-0.55659 0.67694 0.3028-0.51912 0.4761-0.67694 0.55659-0.67694zm12.884 0.0677c0.0732 0.1656-0.0783 0.89307-0.15797 0.12786 0.0855-0.1656 0.13486-0.17792 0.15797-0.12786zm-39.985 0.30084c0.34775-0.01617 0.73472 0.99275-0.27831 0.4513 0.0558-0.32811 0.16239-0.44745 0.27831-0.4513zm27.672 0.09778c0.0732 0.15789-0.0782 0.88555-0.15797 0.12034 0.0855-0.15789 0.13487-0.17041 0.15797-0.12034zm-2.8883 1.3915c0.37162-0.18755 2e-3 0.88051-0.63934 0.69951 0.30427-0.43363 0.51549-0.63789 0.63934-0.69951zm-22.482 0.08272c0.43475-0.19794-0.24747 1.0555-0.84993 0.78977 0.43817-0.49717 0.70513-0.7243 0.84993-0.78977zm12.636 0.54908c0.16267 0.03851-0.33262 0.34074-0.42121 0.08272 0.23996-0.08087 0.36704-0.08272 0.42121-0.08272zm-15.735 0.62429c0.30166 0.01848 0.72147 0.97648-0.21061 0.39112 0.0189-0.29576 0.11014-0.39112 0.21061-0.39112zm0.62429 0.21812c0.45339-0.15635 0.31637 1.5668-0.63933 0.9402 0.275-0.62464 0.48837-0.88628 0.63933-0.9402zm2.091 1.0079c0.27027 0.08472-0.0112 0.89806-0.46633 0.24069 0.22755-0.20026 0.3762-0.2792 0.46633-0.24069zm0.7296 1.1282c0.21069 0.04313 0.0842 0.36312-1.0004 0.81985 0.24192-0.62965 0.78968-0.86222 1.0004-0.81985zm10.37-10.809c0.0911-0.21142 0.91179 0.90135-0.0571 3.1292 0.60469-1.3814-0.0339-2.9174 0.0571-3.1292zm-0.35765 4.7422c0.19021-0.19833 1.4398 0.23684 0.37425 1.349-1.1 0.38426-0.56448-1.1487-0.37425-1.349zm-14.328-8.8382c0.14819-1.4558 0.98287-1.106 0 0.09027z" style="fill:#ee4023;font-feature-settings:normal;font-variant-caps:normal;font-variant-ligatures:normal;font-variant-numeric:normal"/>
</svg>
