<svg id="SVGRoot" version="1.1" viewBox="0 0 50 32" xmlns="http://www.w3.org/2000/svg" xmlns:xlink="http://www.w3.org/1999/xlink"  width="50" height="32">
  <defs>
    <style>.cls-1{fill:none;}.cls-2{fill:#231f20;}.cls-3{fill:#ff5f00;}.cls-4{fill:#eb001b;}.cls-5{fill:#f79e1b;}</style>
  </defs>
  <rect x=".5" y=".5" width="49" height="31" rx="4" ry="4" style="fill:none;stroke:#cccccc"/>
  <g transform="matrix(.8821 0 0 .8822 49.22 12.73)">
    <path class="cls-2" d="m-37.55 16.38v-1.635a0.97 0.97 0 0 0 -1.025 -1.035 1.008 1.008 0 0 0 -0.9155 0.4632 0.9564 0.9564 0 0 0 -0.861 -0.4632 0.861 0.861 0 0 0 -0.7629 0.3869v-0.3215h-0.5668v2.605h0.5722v-1.433a0.6104 0.6104 0 0 1 0.6376 -0.6921c0.376 0 0.5668 0.2452 0.5668 0.6866v1.45h0.5722v-1.444a0.6131 0.6131 0 0 1 0.6376 -0.6921c0.3869 0 0.5722 0.2452 0.5722 0.6866v1.45zm8.466-2.605h-0.9319v-0.7902h-0.5722v0.7902h-0.5177v0.5177h0.5286v1.199c0 0.6049 0.2343 0.9646 0.9046 0.9646a1.33 1.33 0 0 0 0.7084 -0.2016l-0.1635-0.485a1.046 1.046 0 0 1 -0.5014 0.1471c-0.2725 0-0.376-0.1744-0.376-0.436v-1.188h0.9264zm4.834-0.06539a0.7684 0.7684 0 0 0 -0.6866 0.3815v-0.3161h-0.5613v2.605h0.5668v-1.46c0-0.4305 0.1853-0.6703 0.545-0.6703a0.9237 0.9237 0 0 1 0.3542 0.0654l0.1744-0.545a1.213 1.213 0 0 0 -0.4033 -0.07084zm-7.308 0.2725a1.948 1.948 0 0 0 -1.063 -0.2725c-0.6594 0-1.09 0.3161-1.09 0.8338 0 0.4251 0.3161 0.6866 0.8992 0.7684l0.2725 0.03815c0.3106 0.0436 0.4578 0.1253 0.4578 0.2725 0 0.2016-0.2071 0.3161-0.594 0.3161a1.387 1.387 0 0 1 -0.8665 -0.2725l-0.2725 0.4414a1.88 1.88 0 0 0 1.128 0.3379c0.752 0 1.188-0.3542 1.188-0.8501s-0.3433-0.6975-0.9101-0.7793l-0.2725-0.03815c-0.2452-0.0327-0.4414-0.08174-0.4414-0.2561 0-0.1744 0.1853-0.3052 0.4959-0.3052a1.678 1.678 0 0 1 0.8174 0.2234zm15.18-0.2725a0.7684 0.7684 0 0 0 -0.6866 0.3815v-0.3161h-0.5613v2.605h0.5668v-1.46c0-0.4305 0.1853-0.6703 0.545-0.6703a0.9237 0.9237 0 0 1 0.3542 0.0654l0.1744-0.545a1.213 1.213 0 0 0 -0.4033 -0.07084zm-7.302 1.362a1.316 1.316 0 0 0 1.39 1.362 1.362 1.362 0 0 0 0.9373 -0.3106l-0.2725-0.4578a1.144 1.144 0 0 1 -0.6812 0.2343 0.8365 0.8365 0 0 1 0 -1.668 1.144 1.144 0 0 1 0.6812 0.2343l0.2725-0.4578a1.362 1.362 0 0 0 -0.9373 -0.3106 1.316 1.316 0 0 0 -1.39 1.362zm5.308 0v-1.297h-0.5668v0.3161a0.9891 0.9891 0 0 0 -0.8174 -0.3815 1.362 1.362 0 0 0 0 2.725 0.9891 0.9891 0 0 0 0.8174 -0.3815v0.3161h0.5668zm-2.109 0a0.7875 0.7875 0 1 1 0.7902 0.8338 0.782 0.782 0 0 1 -0.7902 -0.8338zm-6.839-1.362a1.363 1.363 0 0 0 0.03815 2.725 1.583 1.583 0 0 0 1.082 -0.3542l-0.2725-0.4196a1.24 1.24 0 0 1 -0.7575 0.2725 0.7221 0.7221 0 0 1 -0.7793 -0.6376h1.935v-0.218c0-0.8174-0.5068-1.362-1.237-1.362zm0 0.5068a0.6458 0.6458 0 0 1 0.6594 0.6322h-1.362a0.6703 0.6703 0 0 1 0.6921 -0.6322zm14.2 0.861v-2.349h-0.545v1.362a0.9891 0.9891 0 0 0 -0.8174 -0.3815 1.362 1.362 0 0 0 0 2.725 0.9891 0.9891 0 0 0 0.8174 -0.3815v0.3161h0.545zm0.9455 0.9237a0.2725 0.2725 0 0 1 0.1035 0.01907 0.2725 0.2725 0 0 1 0.08447 0.0545 0.2725 0.2725 0 0 1 0.05722 0.08174 0.2534 0.2534 0 0 1 0 0.2016 0.2725 0.2725 0 0 1 -0.05722 0.08174 0.2725 0.2725 0 0 1 -0.08447 0.0545 0.2561 0.2561 0 0 1 -0.1035 0.0218 0.2725 0.2725 0 0 1 -0.2452 -0.158 0.2561 0.2561 0 0 1 0 -0.2016 0.2725 0.2725 0 0 1 0.05722 -0.08174 0.2725 0.2725 0 0 1 0.08447 -0.0545 0.2725 0.2725 0 0 1 0.1117 -0.01907zm0 0.4605a0.1935 0.1935 0 0 0 0.07902 -0.01635 0.2044 0.2044 0 0 0 0.06267 -0.0436 0.2016 0.2016 0 0 0 0 -0.2725 0.2016 0.2016 0 0 0 -0.06267 -0.0436 0.1962 0.1962 0 0 0 -0.07902 -0.01635 0.2044 0.2044 0 0 0 -0.07902 0.01635 0.1989 0.1989 0 0 0 -0.0654 0.0436 0.2016 0.2016 0 0 0 0 0.2725 0.2016 0.2016 0 0 0 0.0654 0.0436 0.2016 0.2016 0 0 0 0.08719 0.01635zm0.01635-0.3242a0.109 0.109 0 0 1 0.07085 0.0218 0.06812 0.06812 0 0 1 0.02452 0.05722 0.0654 0.0654 0 0 1 -0.01907 0.04905 0.09537 0.09537 0 0 1 -0.05722 0.02452l0.07902 0.08992h-0.06267l-0.07357-0.08992h-0.02452v0.08992h-0.05177v-0.2398zm-0.05994 0.04632v0.06539h0.05994a0.05722 0.05722 0 0 0 0.0327 0 0.02725 0.02725 0 0 0 0 -0.02452 0.02725 0.02725 0 0 0 0 -0.02452 0.05722 0.05722 0 0 0 -0.0327 0zm-2.997-1.106a0.7875 0.7875 0 1 1 0.7902 0.8338 0.782 0.782 0 0 1 -0.7902 -0.8338zm-19.14 0v-1.302h-0.5668v0.3161a0.9891 0.9891 0 0 0 -0.8174 -0.3815 1.362 1.362 0 0 0 0 2.725 0.9891 0.9891 0 0 0 0.8174 -0.3815v0.3161h0.5668zm-2.109 0a0.7875 0.7875 0 1 1 0.7902 0.8338 0.782 0.782 0 0 1 -0.7956 -0.8338z" style="fill:#231f20;stroke-width:.2725"/>
    <g id="_Group_" transform="matrix(.2725 0 0 .2725 -47.45 -12.3)" data-name="&lt;Group&gt;">
      <rect class="cls-3" x="57.65" y="22.85" width="31.5" height="56.61" style="fill:#ff5f00"/>
      <path id="_Path_" class="cls-4" d="m59.65 51.16a35.94 35.94 0 0 1 13.75 -28.31 36 36 0 1 0 0 56.61 35.94 35.94 0 0 1 -13.75 -28.3z" style="fill:#eb001b" data-name="&lt;Path&gt;"/>
      <path class="cls-5" d="m131.6 51.16a36 36 0 0 1 -58.25 28.3 36 36 0 0 0 0 -56.61 36 36 0 0 1 58.25 28.3z" style="fill:#f79e1b"/>
      <path class="cls-5" d="m128.2 73.46v-1.16h0.47v-0.24h-1.19v0.24h0.51v1.16zm2.31 0v-1.4h-0.36l-0.42 1-0.42-1h-0.32v1.4h0.26v-1.05l0.39 0.91h0.27l0.39-0.91v1.06z" style="fill:#f79e1b"/>
    </g>
  </g>
  <style>.cls-2{fill:#005098}.cls-3{fill:#f7a600}</style>
</svg>
