<svg id="SVGRoot" version="1.1" viewBox="0 0 17 17" xmlns="http://www.w3.org/2000/svg" width="16" height="16">
  <path transform="matrix(.03345 .005185 -.005185 .03345 8.352 -44.19)" d="m450.1 1618c-6.314 16.22-51.27 12.22-61.56 26.25-10.3 14.03 6.992 55.72-6.584 66.6-13.58 10.89-50.51-15.05-66.44-8.045-15.93 7.001-21.8 51.75-39 54.39-17.2 2.64-36.22-38.29-53.52-40.19-17.3-1.902-44.76 33.91-60.97 27.6-16.22-6.314-12.22-51.27-26.25-61.56s-55.72 6.992-66.6-6.584 15.05-50.51 8.045-66.44c-7.001-15.93-51.75-21.8-54.39-39s38.29-36.22 40.19-53.52-33.91-44.76-27.6-60.97 51.27-12.22 61.56-26.25c10.3-14.03-6.992-55.72 6.584-66.6 13.58-10.89 50.51 15.05 66.44 8.045 15.93-7.001 21.8-51.75 39-54.39 17.2-2.64 36.22 38.29 53.52 40.19 17.3 1.902 44.76-33.91 60.97-27.6 16.22 6.314 12.22 51.27 26.25 61.56s55.72-6.992 66.6 6.584-15.05 50.51-8.045 66.44c7.001 15.93 51.75 21.8 54.39 39 2.64 17.2-38.29 36.22-40.19 53.52s33.91 44.76 27.6 60.97z" style="fill:none;stroke-linecap:round;stroke-linejoin:round;stroke-width:33.97;stroke:#000000"/>
  <path d="m8.57 10.78v-6.303" style="fill:none;stroke-linecap:round;stroke-linejoin:round;stroke-width:1.15;stroke:#000000"/>
  <path d="m8.57 12.71v-0.1052" style="fill:none;stroke-linecap:round;stroke-linejoin:round;stroke-width:1.15;stroke:#000000"/>
</svg>
