<svg id="SVGRoot" version="1.1" viewBox="0 0 22 20" xmlns="http://www.w3.org/2000/svg" width="23" height="21">
  <path d="m10.36 0.7891c-4.336 0-7.863 3.527-7.863 7.863 0 4.336 3.527 7.863 7.863 7.863 4.336 0 7.863-3.527 7.863-7.863 0-4.336-3.527-7.863-7.863-7.863zm0 1.15c3.714 0 6.713 2.999 6.713 6.713 0 3.714-2.999 6.713-6.713 6.713-3.714 0-6.713-2.999-6.713-6.713 0-3.714 2.999-6.713 6.713-6.713z" style="color-rendering:auto;color:#000000;dominant-baseline:auto;fill:#000000;font-feature-settings:normal;font-variant-alternates:normal;font-variant-caps:normal;font-variant-ligatures:normal;font-variant-numeric:normal;font-variant-position:normal;image-rendering:auto;isolation:auto;mix-blend-mode:normal;shape-padding:0;shape-rendering:auto;solid-color:#000000;text-decoration-color:#000000;text-decoration-line:none;text-decoration-style:solid;text-indent:0;text-orientation:mixed;text-transform:none;white-space:normal"/>
  <path d="m15.46 13.45a0.5751 0.5751 0 0 0 -0.4004 0.9863l4.789 4.789a0.5752 0.5752 0 1 0 0.8125 -0.8145l-4.787-4.787a0.5751 0.5751 0 0 0 -0.4141 -0.1738z" style="color-rendering:auto;color:#000000;dominant-baseline:auto;fill:#000000;font-feature-settings:normal;font-variant-alternates:normal;font-variant-caps:normal;font-variant-ligatures:normal;font-variant-numeric:normal;font-variant-position:normal;image-rendering:auto;isolation:auto;mix-blend-mode:normal;shape-padding:0;shape-rendering:auto;solid-color:#000000;text-decoration-color:#000000;text-decoration-line:none;text-decoration-style:solid;text-indent:0;text-orientation:mixed;text-transform:none;white-space:normal"/>
</svg>
