<svg id="SVGRoot" version="1.1" viewBox="0 0 17 17" xmlns="http://www.w3.org/2000/svg" width="16" height="16">
  <path d="m5.967 10.21-0.01623 1.501h-4.816v-1.507l0.4222-0.01029c-0.384-1.204-0.4986-2.933 0.304-3.964 1.949 1.299 4.586 0.4204 6.039-0.8408 0.3518 0.4817 0.7488 0.8913 1.172 1.241 2.567 2.118 6.107 2.233 6.485 2.61 0.4395 0.4395 0.4969 1.185 0.4969 1.185s-3.415 1.297-5.67 1.297c-2.255 0-4.417-1.511-4.417-1.511h-1.779" style="fill:none;stroke-linejoin:round;stroke-width:1.15;stroke:#000000"/>
  <path d="m12.83 8.597v2.54" style="fill:none;stroke-width:1.15;stroke:#000000"/>
  <path d="m9.906 7.49-0.5592 0.9089" style="fill:none;stroke-linecap:round;stroke-width:1.15;stroke:#000000"/>
  <path d="m8.698 6.487-0.7649 0.9971" style="fill:none;stroke-linecap:round;stroke-width:1.15;stroke:#000000"/>
</svg>
