<svg id="SVGRoot" version="1.1" viewBox="0 0 17 17" xmlns="http://www.w3.org/2000/svg" width="16" height="16">
  <path d="m14.37 5.403c-0.02906-1.163-0.6159-3.047-3.575-1.061-3.134 2.103-2.02 2.936 0.8429 3.328 2.711 0.3715 2.718-1.817 2.732-2.267z" style="fill:none;stroke-width:1.15;stroke:#000000"/>
  <path d="m3.372 11.92v-0.7557s2.979 0.3488 5.101 0.3488c2.122 0 5.246-0.3488 5.246-0.3488v0.7411s-3.804 1.523-4.49 4.084h-1.366s-0.3488-2.238-4.49-4.069z" style="fill:none;stroke-width:1.15;stroke:#000000"/>
  <path d="m13.39 0.3456v3.124" style="fill:none;stroke-width:1.15;stroke:#000000"/>
  <path d="m3.692 0.3456v3.124" style="fill:none;stroke-width:1.15;stroke:#000000"/>
  <path d="m8.095 6.275h0.8865" style="fill:none;stroke-width:1.15;stroke:#000000"/>
  <path d="m2.635 5.403c0.02906-1.163 0.6159-3.047 3.575-1.061 3.134 2.103 2.02 2.936-0.8429 3.328-2.711 0.3715-2.718-1.817-2.732-2.267z" style="fill:none;stroke-width:1.15;stroke:#000000"/>
</svg>
