<svg id="SVGRoot" version="1.1" viewBox="0 0 50 32" xmlns="http://www.w3.org/2000/svg" xmlns:xlink="http://www.w3.org/1999/xlink" width="50" height="32">
  <rect x=".5" y=".5" width="49" height="31" rx="4" ry="4" style="fill:none;stroke:#cccccc"/>
  <g transform="matrix(.8187 0 0 .8187 5.038 -24.67)">
    <path class="cls-2" d="m16.18 56.79 2.418-14.2h3.87l-2.421 14.2z" style="fill:#005098"/>
    <path d="m34.09 42.94a9.996 9.996 0 0 0 -3.468 -0.5957c-3.824 0-6.528 1.926-6.528 4.686-0.02176 2.04 1.923 3.18 3.392 3.857 1.469 0.6773 2.013 1.14 2.005 1.762 0 0.952-1.202 1.387-2.315 1.387a8.114 8.114 0 0 1 -3.658 -0.748l-0.4978-0.2258-0.544 3.18c0.903 0.3971 2.576 0.7398 4.311 0.7589 4.08 0 6.71-1.904 6.74-4.852 0.0136-1.616-1.017-2.845-3.25-3.857-1.36-0.6582-2.176-1.088-2.176-1.76 0-0.5902 0.7017-1.221 2.217-1.221a7.14 7.14 0 0 1 2.897 0.544l0.3482 0.1632 0.525-3.076" style="fill:#005098"/>
    <path d="m41.02 42.6c-0.9275 0-1.633 0.253-2.027 1.178l-5.746 13.01h4.062s0.6641-1.749 0.8164-2.133h4.957c0.117 0.4978 0.4688 2.127 0.4688 2.127h3.592l-3.131-14.18zm0.2754 3.824 0.2715 1.223 0.8945 4.1-3.223 0.0059c0.321-0.816 1.541-3.969 1.541-3.969s0.3198-0.8154 0.5156-1.359z" style="fill:#005098"/>
    <path d="m12.94 42.6-3.789 9.683-0.4026-1.966c-0.7072-2.277-2.91-4.724-5.358-5.957l3.465 12.42h4.094l6.09-14.18h-4.099" style="fill:#005098"/>
    <path class="cls-3" d="m5.631 42.6h-6.239l-0.04896 0.2965c4.86 1.167 8.067 4.006 9.4 7.42l-1.36-6.528c-0.2339-0.9003-0.9139-1.167-1.754-1.2" style="fill:#f7a600"/>
  </g>
  <style>.cls-2{fill:#005098}.cls-3{fill:#f7a600}</style>
</svg>
